<?xml version="1.0" encoding="UTF-8"?>
<svg id="Layer_1" xmlns="http://www.w3.org/2000/svg" version="1.1" viewBox="0 0 640 640">
  <!-- Generator: Adobe Illustrator 30.0.0, SVG Export Plug-In . SVG Version: 2.1.1 Build 123)  -->
  <g>
    <g>
      <path d="M247.53,321.85c-.42,0-.86-.23-1.28-.3s-.71-.51-1.1-.69c-.35-.15-.83-.02-1.13-.21s-.59-.48-.86-.72-.47-.57-.69-.87-.63-.5-.8-.83-.42-.68-.53-1.04-.23-.77-.27-1.13-.02-.8,0-1.16.12-.78.2-1.14.87-.47,1.02-.81c.21-.5-.63-.86-.42-1.35s.2-.51.41-1.01.27-.48.48-.98.5-.38.71-.87.12-.54.35-1.04.51-.38.72-.87.6-.33.83-.83-.51-.81-.3-1.31.3-.47.51-.96.2-.51.41-1.01.41-.42.62-.92.57-.35.8-.84.02-.59.23-1.1.41-.42.62-.93-.48-.8-.27-1.31.2-.51.42-1.02c.15-.35.69-.5.89-.8s.12-.89.36-1.14.87-.17,1.16-.39.44-.71.77-.87.68-.41,1.02-.51.8.08,1.16.03.72.3,1.08.32.77-.33,1.13-.24.86-.14,1.2,0c.35.15.41.87.71,1.07s.39.62.65.86.86.17,1.08.45-.06.86.11,1.19,1.05.35,1.16.71-.09.8-.05,1.16-.47.71-.48,1.08.11.68.03,1.04-.21.63-.36.98c-.21.5.36.74.15,1.25s-.02.59-.23,1.08-.42.42-.63.92-.63.32-.84.83-.44.41-.65.9.14.65-.08,1.16-.18.51-.39,1.01-.21.5-.42,1.01-.18.51-.39,1.02-.45.41-.66.9-.2.51-.41,1.01.08.62-.14,1.13-.23.5-.45.99-.41.42-.62.93-.56.36-.77.87.12.65-.11,1.16c-.14.33.11.87-.09,1.16s-.6.48-.84.74-.26.83-.54,1.04-1.01-.21-1.31-.05-.44.72-.77.83-.8-.33-1.14-.27-.63.72-.99.72h.03Z"/>
      <path d="M268.35,322.47c-.42,0-.9.68-1.31.6s-.81-.33-1.22-.5c-.35-.15-.77-.23-1.07-.42s-.29-.84-.54-1.1-.99-.11-1.22-.41-.38-.71-.54-1.04.47-.96.36-1.31-.24-.62-.29-.98-.86-.69-.84-1.07.17-.77.24-1.13.26-.72.41-1.07c.21-.5.24-.48.45-.99s.74-.29.95-.78.21-.5.42-1.01.26-.48.47-.98-.09-.63.12-1.13.57-.35.78-.86-.08-.63.14-1.13.11-.54.32-1.05.08-.56.29-1.07-.09-.63.12-1.13.75-.27.98-.77.35-.45.56-.95-.11-.65.11-1.14.54-.36.75-.87-.08-.63.14-1.14-.21-.69,0-1.19c.15-.35.99-.33,1.19-.63s.09-.86.33-1.13.89-.09,1.17-.3.24-.99.56-1.16.84.09,1.19,0,.71,0,1.07-.03.69-.63,1.07-.62.6.78.96.86.74-.12,1.08.03c.35.15.51.51.81.71s.62.3.89.54.53.45.75.74.35.59.51.92.27.63.38.98.38.63.42.99.53.74.51,1.1-.29.74-.38,1.1.11.86-.05,1.2c-.21.5-1.08.14-1.29.63s.11.63-.11,1.14-.57.35-.78.84.57.83.36,1.34-.59.35-.8.84-.09.56-.32,1.05-.6.33-.83.84.33.74.12,1.23,0,.59-.21,1.1-1.01.17-1.22.68.11.63-.11,1.14-.08.56-.29,1.05-.68.3-.89.81.62.86.41,1.37-.41.42-.63.93-.59.35-.81.86c-.14.33,0,.8-.2,1.1s-.2.81-.42,1.08-1.08-.11-1.35.11-.14,1.1-.44,1.26-.8.08-1.13.2-.75-.05-1.1,0-.68-.29-1.04-.29l.03-.03Z"/>
    </g>
    <path d="M298.25,279.26c-.36,0-.75.38-1.13.36s-.75-.15-1.11-.18-.66-.72-1.02-.77-.83.53-1.19.45-.74-.17-1.08-.24-.59-.71-.95-.8-.72-.12-1.07-.23-.84.2-1.19.08-.6-.5-.95-.63-.84.09-1.17-.06-.53-.63-.86-.8-.59-.45-.92-.63-.63-.38-.95-.56-.59-.44-.89-.65-.42-.68-.72-.89-.54-.47-.84-.69-1.11.21-1.39-.02-.12-.98-.41-1.22-.8-.21-1.07-.47-.6-.45-.86-.71-.33-.71-.57-.98-.8-.29-1.04-.57-.21-.78-.44-1.07-.3-.69-.51-.99-.72-.39-.93-.69-.29-.69-.5-.99-.48-.57-.68-.89-.54-.54-.72-.87.41-1.04.24-1.37-.86-.39-1.01-.74-.56-.57-.71-.9-.27-.69-.41-1.04-.38-.66-.5-1.01-.03-.77-.14-1.13-.15-.72-.24-1.08.21-.81.12-1.17-.59-.62-.66-.98-.03-.75-.09-1.11.11-.75.06-1.13c-.05-.38-.47-.72-.45-1.08s.26-.74.33-1.08-.17-.86-.03-1.2,1.1-.26,1.29-.56.21-.68.45-.95.17-.89.45-1.11.81-.11,1.14-.27.54-.59.89-.71.78.26,1.16.2c.38-.05.69-.51,1.05-.5s.78-.06,1.14.02.57.65.9.78.93-.2,1.25,0,.36.78.63,1.02.29.68.51.96.92.26,1.1.57.2.74.3,1.08.41.68.45,1.05c.05.36-.48.83-.42,1.19s.45.66.54,1.01,0,.77.09,1.11.83.5.96.84.21.68.35,1.02.05.77.2,1.1.23.71.39,1.02.38.6.57.9.75.35.95.63-.26,1.05-.05,1.34.56.48.78.75.84.2,1.08.45.3.71.56.95.69.27.96.5.41.62.71.83.83,0,1.13.2.38.74.69.9.42.78.75.93.86-.2,1.19-.08.56.62.9.71.77-.06,1.11,0,.75-.27,1.1-.24.68.41,1.02.42.72.11,1.07.09.63-.62.99-.66.89.8,1.23.72.74-.18,1.08-.29.6-.53.93-.66.54-.54.86-.71.39-.71.71-.89.63-.27.92-.48.65-.3.92-.53.71-.27.96-.53.9-.15,1.14-.42-.21-1.11,0-1.4,1.07-.11,1.28-.39.03-.84.21-1.16.26-.66.42-.99.72-.45.87-.78.18-.71.32-1.05-.14-.81-.03-1.14.27-.66.36-1.01.56-.6.63-.96.35-.68.41-1.04-.72-.81-.69-1.17.38-.68.39-1.04.35-.71.35-1.07-.74-.69-.75-1.05.15-.71.11-1.07.62-.8.57-1.16c-.05-.38-.23-.66-.21-1.02s-.56-.81-.48-1.17.9-.5,1.04-.83-.23-.92-.03-1.23.6-.48.84-.75.26-.84.54-1.07.83-.12,1.16-.3.5-.8.86-.92.8-.08,1.17-.12c.38-.06.78.21,1.14.23s.81-.23,1.16-.15.44,1.02.78,1.16,1.11-.57,1.42-.38.38.8.65,1.04.59.47.81.75.36.65.54.98.02.75.14,1.11.68.59.72.95,0,.74.03,1.1-.33.75-.3,1.11.56.69.59,1.05-.33.74-.33,1.1.11.72.11,1.08.15.74.14,1.08-.63.68-.66,1.04.35.75.3,1.11-.33.68-.39,1.04.72.86.66,1.2-1.07.53-1.14.89-.14.69-.23,1.05.59.9.48,1.25-.69.56-.8.9.26.86.14,1.19-.24.69-.36,1.04-1.08.33-1.23.66.5,1.02.33,1.34-.93.35-1.1.66.06.86-.12,1.16-.12.78-.3,1.08-.89.3-1.1.6-.06.84-.27,1.13-.36.65-.59.93-.59.47-.81.75-.39.63-.63.9-.59.45-.84.71-.54.48-.8.74-.89.11-1.16.35-.41.62-.68.86-.18.93-.47,1.16-.53.53-.83.74-1.04-.26-1.35-.08-.63.33-.95.51-.62.35-.93.51-.45.71-.78.86-.72.17-1.05.3-.54.62-.87.74-.77,0-1.11.11-.8-.15-1.14-.06-.65.35-.99.44-.59.71-.95.77-.77-.12-1.11-.08c-.41.06-.78.33-1.19.36s-.83-.05-1.23-.03-.81-.11-1.22-.11l.08-.05Z"/>
    <path d="M365.47,265.76c-.36,0-.69.05-1.05.02s-.75.5-1.11.45-.65-.53-.99-.59-.8.35-1.14.27-.62-.48-.96-.57-.66-.24-1.01-.36-.69-.17-1.02-.3-.78,0-1.1-.15-.42-.75-.74-.92-.65-.29-.95-.47-.57-.41-.87-.6-.99.2-1.28,0-.47-.59-.75-.8-.15-.95-.42-1.17-.59-.38-.86-.63-.5-.48-.75-.74-.92-.11-1.16-.38-.14-.83-.38-1.1-.71-.33-.93-.62-.03-.87-.24-1.16-.45-.53-.66-.83-.59-.45-.78-.75-.72-.39-.9-.71-.45-.57-.63-.89-.21-.71-.38-1.02-.12-.74-.27-1.07-.14-.72-.29-1.05-.63-.53-.75-.86-.5-.59-.62-.93-.2-.71-.3-1.04-.06-.74-.15-1.08-.3-.68-.39-1.02.09-.77.03-1.11.17-.77.11-1.11-.63-.63-.69-.99c-.05-.38-.21-.8-.2-1.16s.96-.63,1.04-.98-.54-.92-.39-1.26.33-.72.53-1.02.42-.68.66-.95.5-.65.78-.87,1.07.29,1.4.12.59-.32.93-.44.62-.38.98-.42c.38-.06.71-.27,1.07-.26s.68.38,1.02.45.95-.53,1.28-.39.36.95.68,1.14.68.27.95.51.74.33.96.62.03.84.2,1.17.39.57.51.93.41.63.47,1.01c.05.36.35.66.42,1.02s-.26.8-.18,1.14.35.66.45,1.01-.12.81,0,1.14.21.71.35,1.04.83.42.98.75.05.78.21,1.1.44.59.62.89.62.45.81.74.21.74.42,1.02.8.26,1.04.51.17.84.42,1.08.78.18,1.05.39.32.8.62.98.5.65.83.8.8.02,1.14.14.75-.08,1.1-.02.68.12,1.04.12.69.06,1.05,0c.36-.05.66-.2,1.01-.3s.89.26,1.22.11.68-.36.98-.56.08-1.07.35-1.31.66-.3.9-.57.6-.41.83-.71.6-.47.8-.78.02-.81.18-1.13.8-.42.93-.77-.14-.83,0-1.17.36-.63.45-.99-.03-.74.05-1.1.71-.6.77-.96-.41-.78-.38-1.14.62-.68.63-1.04-.65-.74-.65-1.11.72-.74.71-1.1-.17-.74-.2-1.1-.89-.62-.95-.98c-.05-.38-.05-.81-.03-1.17s.05-.81.12-1.17.77-.57.9-.9.23-.69.42-.99.62-.41.87-.68-.06-1.14.23-1.39.86-.14,1.17-.3.84.18,1.19.08.57-.56.95-.62c.38-.05.75-.56,1.11-.54s.65.83,1.01.9.87-.36,1.2-.23.71.33,1.01.51.21.92.48,1.16,1.14-.06,1.37.23.38.71.54,1.04.44.68.56,1.02.15.78.2,1.16c.05.36-.32.78-.29,1.14s-.29.75-.26,1.11.21.71.23,1.07.14.72.15,1.08.59.74.59,1.1-.36.72-.38,1.08-.12.72-.15,1.08.17.75.12,1.11-.02.74-.08,1.1-.93.57-.99.93.39.81.32,1.17-.27.68-.36,1.04-.63.57-.74.92.03.75-.08,1.1.48.95.36,1.29-.66.53-.8.87-.53.56-.68.89-.39.6-.56.93-.39.6-.57.92-.14.75-.32,1.07.06.92-.14,1.22-.95.23-1.17.51-.32.66-.54.95-.24.77-.48,1.02-.38.66-.63.92-.83.21-1.08.45-.45.59-.74.81-.95-.05-1.25.17-.03,1.2-.33,1.42-1.07-.32-1.37-.14-.29.96-.6,1.13-.92-.21-1.25-.06-.36,1.02-.71,1.14-1.01-.68-1.35-.57-.53.72-.87.81-.72.08-1.08.15-.68.3-1.04.36c-.44.06-.92-.15-1.35-.12s-.87-.3-1.32-.3l.03-.06Z"/>
    <path d="M208.04,349.22c-.36,0-.74-.05-1.1-.05s-.72-.3-1.08-.32-.75.23-1.11.2-.66-.71-1.02-.75-.8.5-1.16.44-.71-.2-1.07-.26-.57-.89-.92-.95-.8.3-1.14.21-.69-.2-1.04-.29-.71-.18-1.05-.27-.78.05-1.11-.06-.68-.27-1.02-.39-.62-.42-.95-.56-.62-.39-.95-.53-.86.14-1.19-.02-.47-.69-.8-.86-.59-.42-.9-.59-.86.06-1.17-.12-.65-.35-.95-.54-.5-.59-.8-.78-.57-.45-.86-.66-.36-.72-.66-.93-1.04.17-1.32-.05-.09-1.05-.36-1.28-.78-.2-1.05-.44-.39-.65-.65-.89-.41-.6-.66-.86-1.1.06-1.34-.2.03-1.02-.21-1.29-.93-.14-1.17-.42-.51-.53-.74-.8-.3-.69-.53-.98-.23-.72-.44-1.02-.56-.48-.77-.78.03-.87-.17-1.17-.77-.36-.96-.68-.69-.44-.87-.75-.02-.81-.18-1.14.17-.89,0-1.2-.26-.66-.41-.99-.42-.59-.56-.92-.62-.53-.74-.87-.15-.71-.26-1.05-.53-.59-.63-.93-.17-.71-.26-1.05.5-.87.41-1.22c-.09-.36-.57-.6-.65-.96s-.23-.69-.3-1.05-.32-.69-.38-1.04.5-.8.44-1.16-1.01-.62-1.05-.98.89-.81.86-1.17-.29-.71-.3-1.07-.18-.72-.18-1.08-.39-.74-.39-1.1-.17-.75-.15-1.11.17-.74.2-1.1,0-.74.03-1.1,0-.75.06-1.1.74-.63.8-.99-.02-.74.06-1.1.53-.63.62-.98-.35-.83-.26-1.17.02-.75.12-1.1.39-.65.51-.99-.05-.78.09-1.13.54-.59.68-.92.59-.54.74-.87,0-.78.17-1.11.51-.56.68-.89.24-.69.41-1.01.57-.51.75-.83-.32-1.02-.14-1.34.75-.39.95-.69.18-.75.39-1.05.48-.56.69-.86.93-.21,1.16-.5.36-.63.59-.92.42-.59.66-.86-.12-1.08.12-1.35.63-.42.87-.69.65-.39.9-.65.9-.11,1.16-.35-.05-1.14.23-1.39,1.08.17,1.37-.06.51-.51.8-.74.2-.96.48-1.17.56-.5.86-.69,1.02.24,1.34.05.42-.71.74-.89l.95-.54c.32-.18.5-.63.81-.8s.69-.26,1.02-.41.62-.41.95-.56.77-.06,1.11-.2.71-.18,1.05-.32.87.29,1.22.17.44-.99.78-1.1.92.56,1.28.47.54-.75.9-.84.74-.23,1.1-.24.77-.06,1.13-.02.72.29,1.07.39.57.51.89.68,1.04-.27,1.34-.06,0,1.13.26,1.4.53.44.72.74.21.63.36.98.26.6.35.96.27.65.3.99,0,.68-.03,1.04.41.81.3,1.17-.81.45-.98.78.39,1.08.17,1.39-.56.57-.83.83-.9.08-1.2.27-.66.2-1.01.35-.47.83-.83.92c-.35.09-.72.08-1.07.18s-.77-.02-1.11.11-.84-.14-1.17,0-.47.8-.8.95-.63.36-.95.53-.93-.18-1.25,0-.29.98-.59,1.16-.96-.15-1.26.06-.54.53-.83.74-.72.29-.99.51-.3.78-.57,1.02-.35.69-.6.95-.54.47-.8.74-.87.2-1.11.47-.62.45-.84.74-.44.6-.65.9.3,1.1.11,1.4-.78.35-.98.66-.08.78-.26,1.1-.9.35-1.07.68.27.92.12,1.25-.38.62-.5.96-.24.68-.35,1.02.02.75-.08,1.1-1.04.48-1.11.83-.2.72-.27,1.07.62.84.56,1.2-.66.65-.71,1.01.68.78.65,1.14-.75.69-.75,1.05.38.72.38,1.08-.33.74-.3,1.1.06.74.09,1.1,0,.74.08,1.1.53.65.6.99-.47.86-.38,1.2c.09.35.33.68.44,1.02s.8.51.92.84.06.75.18,1.08.02.78.17,1.11.51.57.68.89-.12.9.05,1.22.99.27,1.17.59.62.45.81.75-.41,1.17-.2,1.48,1.1.08,1.32.36.51.5.75.77-.12,1.11.12,1.37.93.09,1.2.35.47.56.74.8.71.27.99.5.27.84.56,1.05.78.15,1.08.35.51.56.81.74.62.39.93.56.69.24,1.02.41.63.38.96.53.59.5.92.63.72.17,1.07.27.89-.44,1.23-.33.62.47.96.54.6.62.96.69.8-.39,1.16-.35.62.87.98.9.75-.03,1.11,0,.74-.08,1.1-.06.72-.48,1.08-.5.75.44,1.11.42.68-.53,1.04-.57.8.51,1.16.45.71-.23,1.07-.3c.36-.08.65-.42,1.01-.51s.72-.23,1.07-.24.69.47,1.05.51.89-.71,1.23-.6.81.15,1.14.3.14,1.2.44,1.42.89.03,1.14.3.18.77.39,1.07.27.6.42.95.15.63.24.99.41.62.44.98.54.75.51,1.11-.54.66-.63,1.01-.12.72-.27,1.05-.18.77-.41,1.05-.57.51-.83.77-.39.74-.69.95-.69.39-1.02.54-.89-.35-1.25-.26c-.38.09-.71.32-1.07.41s-.71.38-1.07.45-.72.38-1.1.44-.86-.66-1.23-.62-.71.44-1.08.47-.75.21-1.13.24-.77-.24-1.14-.23-.75.77-1.13.77l.09-.09Z"/>
    <path d="M358.43,161.05c.32.15.66.35.95.56s.18.87.42,1.11,1.02.08,1.22.36.2.75.35,1.07.12.72.21,1.05-.15.71-.12,1.05.33.66.3,1.02-.33.68-.38,1.05c-.03.35.65.8.59,1.16-.05.35-.29.69-.35,1.05s-.05.72-.12,1.08-.48.65-.54,1.01-.17.69-.24,1.05-.38.65-.47,1.01-.23.68-.32,1.04-.02.74-.12,1.08-.54.59-.65.93-.05.74-.17,1.08.17.83.05,1.17-.57.56-.71.9.42.95.29,1.29-1.14.3-1.29.63.53,1.02.36,1.35-1.1.27-1.26.6.26.93.08,1.26-.32.66-.48.98-.35.65-.53.96-.42.6-.6.92-.18.75-.39,1.05-1.1.14-1.31.44.09.95-.14,1.23-.27.71-.5.99-1.07.09-1.31.38-.08.87-.32,1.16-.93.15-1.17.42-.42.59-.66.86.14,1.13-.12,1.39-.81.21-1.07.47-.57.45-.83.69-.77.21-1.04.45-.05,1.04-.33,1.26-.74.24-1.02.47-.72.23-1.01.45-.59.41-.87.62-.51.51-.81.71-.56.45-.86.65-.53.51-.83.71-.8.06-1.11.26-.18,1.08-.5,1.26-.96-.21-1.26-.03-.78.08-1.08.24-.39.77-.71.93-.71.18-1.04.35-.39.84-.71.99-.89-.2-1.22-.03-.57.48-.89.63-.53.6-.86.74-.74.14-1.07.27-.68.24-1.01.38-.59.48-.92.6-.96-.5-1.29-.38-.47.83-.8.95-.86-.26-1.2-.14-.69.23-1.02.33-.59.53-.92.63-.8-.15-1.13-.05-.65.33-.98.44-.63.44-.96.53-.77-.08-1.1,0-.69.2-1.02.27c-.36.09-.6.84-.96.87s-.75-.41-1.11-.44-.86.36-1.19.26-.68-.42-1.01-.59-.72-.32-1.01-.53-.48-.62-.72-.89-.77-.41-.96-.71.15-.93,0-1.28.18-.75.12-1.11-.36-.62-.36-.98-.26-.72-.2-1.08c.09-.54-.23-.59-.15-1.13s.09-.54.17-1.07.9-.41.99-.95-.24-.59-.15-1.13,0-.56.08-1.08-.5-.63-.41-1.16.11-.53.2-1.07.68-.45.75-.98-.12-.57-.03-1.11.44-.48.51-1.02-.15-.57-.08-1.11.44-.48.53-1.02-.03-.56.05-1.1.23-.51.32-1.05-.41-.62-.33-1.16,0-.56.09-1.08-.06-.56.03-1.1.62-.45.69-.99-.06-.56.02-1.1.36-.5.44-1.04-.45-.62-.38-1.16.74-.44.81-.98-.17-.57-.08-1.11-.09-.57,0-1.11.26-.51.35-1.05.21-.53.29-1.05-.33-.6-.26-1.14.47-.48.54-1.02-.41-.62-.32-1.16.33-.5.41-1.04-.26-.59-.17-1.13.47-.48.54-1.02-.06-.56.02-1.1-.11-.57-.02-1.1-.17-.57-.08-1.11l.18-1.08c.09-.54.93-.41,1.01-.95s-.09-.57,0-1.11-.53-.63-.45-1.17.21-.53.3-1.07.39-.5.48-1.04,0-.56.08-1.1.53-.48.6-1.02-.15-.59-.06-1.13-.18-.59-.09-1.13-.24-.59-.15-1.13.65-.45.74-.99.29-.51.38-1.05.03-.56.11-1.1-.5-.63-.41-1.19.5-.48.59-1.02c.06-.38-.24-.86-.12-1.2s.71-.51.9-.84.2-.77.44-1.05.48-.62.78-.84.92.08,1.25-.09.53-.51.89-.63.66-.45,1.04-.5.74.32,1.11.35.81-.39,1.17-.29.54.66.89.83c.48.23.71-.24,1.19,0s.54.12,1.02.36.42.36.9.59.42.35.9.59.26.71.74.95.84-.5,1.32-.27.53.14,1.01.36.14.96.62,1.2.81-.44,1.29-.21.48.24.96.47.45.3.93.53.41.38.89.62.29.65.77.87.8-.42,1.28-.2.48.24.96.47.18.86.66,1.08.42.36.9.6.75-.33,1.25-.09.54.12,1.02.36.18.87.66,1.1.83-.5,1.32-.26.15.95.63,1.17.77-.35,1.25-.12.21.8.71,1.02.45.32.93.56.72-.24,1.2,0,.57.05,1.07.29.24.75.72.98.39.45.87.68.69-.2,1.19.05.33.77.86.92.75-.48,1.23-.24l.02-.06Z"/>
    <path d="M387.71,178.97c.32.15.5.65.77.86s.06.86.26,1.13.9.24,1.04.56-.17.75-.12,1.1.69.68.66,1.02-.89.62-.93.99c-.05.35.06.71,0,1.08-.05.35.06.72,0,1.1-.06.35,0,.72-.08,1.1-.08.35-.18.69-.27,1.05s.24.81.15,1.17-.17.72-.29,1.07-1.1.39-1.22.75.53.96.39,1.31-.8.47-.93.8-.38.62-.53.95.12.86-.05,1.19-.6.51-.78.83-.38.62-.56.93-.38.62-.57.93-.66.42-.87.72-.42.57-.63.87-.02.89-.24,1.19-.74.33-.98.6-.57.45-.83.72,0,1.01-.24,1.26c-.26.26-.44.6-.69.86s-.9.09-1.17.33-.5.53-.77.75-.5.54-.78.75-.38.71-.66.92-.68.32-.96.53-.6.41-.9.6-.59.42-.9.62-.93-.15-1.23.03-.21,1.1-.53,1.28-.71.24-1.02.41-.65.33-.98.48-.84-.08-1.17.08-.81-.03-1.13.11-.59.47-.92.6-.65.3-.99.44-.56.57-.89.69-.69.24-1.02.36-.84-.21-1.17-.11-.47.92-.81,1.02-.89-.44-1.23-.35-.57.65-.9.75c-.36.09-.68.27-1.02.36-.35.09-.75.12-1.1.12s-.65-.47-.99-.56-.66-.12-.96-.29-.38-.56-.63-.8-.68-.26-.87-.54-.69-.45-.8-.8.3-.78.27-1.13.17-.6.21-.96c.09-.54-.06-.56.03-1.1s-.32-.6-.23-1.13.65-.45.74-.98-.18-.57-.09-1.11-.45-.62-.36-1.16.26-.51.35-1.05.38-.5.47-1.02.36-.5.44-1.04-.84-.68-.77-1.22.26-.51.35-1.04.77-.44.86-.96-.41-.62-.32-1.14.48-.48.57-1.01.29-.51.36-1.04-.87-.69-.78-1.22.62-.45.69-.99-.47-.62-.39-1.16,1.07-.38,1.14-.92-.89-.68-.81-1.22.84-.42.93-.95.15-.53.23-1.07.2-.53.29-1.05-.8-.68-.72-1.22.33-.5.41-1.04.65-.45.74-.99-.66-.66-.59-1.19,0-.56.09-1.08.68-.45.75-.99.21-.53.3-1.05-.5-.63-.41-1.17.66-.45.75-.99-.38-.6-.29-1.14.21-.53.3-1.07,0-.56.08-1.1-.18-.59-.11-1.13.5-.48.59-1.02c.06-.39-.12-.89.03-1.22s.42-.74.65-1.02.78-.33,1.08-.56.56-.65.9-.77.78-.36,1.16-.39.77.45,1.14.53.84-.12,1.2.05c.5.24.33.57.83.81s.35.56.83.78.63-.05,1.11.18.5.24.98.47.48.27.96.51.65-.08,1.14.15.35.53.84.77.72-.23,1.22,0,.33.59.83.81.66-.11,1.16.14.23.78.72,1.02.56.14,1.05.36.51.2,1.01.44.36.53.86.77.86-.53,1.37-.29.53.18,1.02.42.15.95.65,1.19.39.45.89.69.65-.06,1.14.18.68-.14,1.17.11.36.51.9.6c.62.11.69-.11,1.2.14l-.05.06Z"/>
    <path d="M467.65,444.97c-.14-.53-.45-.44-.59-.96s.47-.69.33-1.2-.33-.47-.48-.99-.42-.45-.57-.96-.35-.47-.5-.99.11-.59-.05-1.1.05-.57-.11-1.08-.18-.51-.32-1.02-.3-.48-.44-.99-.39-.45-.53-.96-.14-.53-.27-1.04.62-.72.47-1.25-.3-.48-.44-.99-.68-.38-.83-.89.59-.72.45-1.25-.93-.3-1.07-.83.48-.69.33-1.22-.08-.54-.21-1.07-.35-.47-.48-.99-.15-.51-.3-1.04-.3-.48-.44-.99-.03-.56-.17-1.07.15-.6,0-1.11-.8-.35-.95-.86.56-.71.41-1.23-.18-.51-.32-1.02-.99-.29-1.14-.81.06-.57-.09-1.1-.3-.48-.45-.99-.21-.51-.35-1.02.33-.65.18-1.17-.06-.54-.21-1.07.23-.63.09-1.14-.84-.33-.98-.86.42-.68.29-1.2,0-.56-.14-1.08-.83-.33-.96-.86.45-.68.32-1.2-.68-.38-.81-.9.47-.69.33-1.2-.8-.35-.95-.86-.17-.51-.32-1.04.27-.63.14-1.16.06-.57-.09-1.1-.89-.32-1.02-.84.21-.62.08-1.14-.3-.48-.44-1.01.32-.65.18-1.17-.18-.51-.32-1.04-.44-.44-.59-.96-.24-.5-.39-1.02.21-.62.06-1.14-.59-.41-.72-.93.18-.6.05-1.13-.6-.39-.75-.92.65-.74.51-1.26-.17-.51-.3-1.04-.51-.42-.66-.95.26-.63.12-1.16-.29-.48-.42-1.01,0-.56-.14-1.08-1.02-.29-1.16-.81.44-.69.3-1.2.08-.59-.08-1.11-.3-.48-.45-1.01.05-.57-.11-1.1-.78-.35-.92-.87.17-.62.03-1.13.29-.65.14-1.16-1.02-.29-1.16-.81.06-.59-.09-1.11,0-.57-.14-1.1.29-.65.15-1.17c0,0-.44.11-.44.09-.11-.36-.48-.59-.63-.9s-.18-.71-.39-.99-.2-.81-.45-1.07-.5-.62-.8-.83-.9.08-1.23-.08-.47-.93-.81-1.02-.86.5-1.22.47-.66.27-1.04.32-.86-.71-1.22-.62c-.36.11-.69.38-1.02.53s-.59.5-.89.71-.23.8-.48,1.07-.89.17-1.1.47-.14.75-.29,1.08,0,.71-.09,1.07-.87.57-.92.93.44.72.47,1.1-.33.8-.23,1.16c.05.18.05.42-.14.93-.09.29-.32.53-.51.9-.15.29-.35.56-.56.89-.18.27-.47.48-.71.8-.21.27.08.95-.18,1.25-.23.26-.3.69-.57.96-.24.26-1.02-.02-1.29.24-.24.24-.11.9-.38,1.16-.26.24-.77.21-1.05.45-.26.23-.63.35-.92.59-.27.23-.21.87-.5,1.1-.27.21-1.01-.14-1.29.08s-.35.74-.65.95-.44.62-.74.84-.59.42-.89.63-.48.57-.8.78c-.3.2-.68.32-.98.51s-.72.21-1.04.39-.51.56-.83.75-.8.09-1.11.27-.44.69-.75.87-.62.39-.93.57-.63.35-.96.53-.93-.21-1.26-.05-.41.78-.74.95-.78.06-1.11.23-.86-.08-1.17.08-.66.29-.99.44-.23,1.2-.56,1.35-.98-.38-1.31-.23-.53.59-.86.74-.6.45-.93.6-.66.3-.99.45-.89-.24-1.23-.11-.68.24-1.02.39-.69.23-1.02.38-.42.87-.77,1.01-.8-.03-1.14.11-.77.05-1.1.18-.48.8-.83.93-.87-.26-1.22-.12-.5.77-.84.89-.9-.35-1.25-.23-.66.32-1.01.44-.57.6-.92.71-.81-.15-1.17-.03-.47.9-.83,1.01-.66.32-1.02.44-.95-.54-1.29-.44-.59.59-.93.69-.72.12-1.08.23-.56.68-.92.78-.92-.54-1.28-.44-.69.26-1.04.35-.5.98-.84,1.07-.78-.06-1.14.05c-.36.09-.86-.38-1.22-.29s-.66.35-1.02.44-.6.59-.96.68-.78-.11-1.13,0-.75-.02-1.11.06-.66.35-1.02.44-.72.12-1.08.2-.65.44-1.01.53-.69.26-1.05.33-.69.29-1.05.36-.71.2-1.07.27-.72.17-1.07.24-.8-.23-1.14-.15-.83-.44-1.19-.36-.65.51-1.01.57-.69.3-1.05.36-.8-.36-1.16-.3-.68.45-1.04.51-.71.2-1.07.24-.75-.11-1.11-.05-.75-.15-1.13-.09-.71.2-1.07.24-.72.06-1.08.11-.71.21-1.07.26-.69.45-1.05.48-.74,0-1.1.03-.71.32-1.07.35-.74,0-1.1.03-.71.32-1.07.35-.78-.8-1.14-.77-.69.78-1.05.8-.74-.11-1.1-.09-.74-.06-1.1-.05-.74.05-1.1.06-.74-.47-1.1-.47-.72.47-1.08.47-.72-.51-1.08-.51-.72.21-1.08.2-.72.05-1.08.03-.69-.35-1.05-.36c-.36-.02-.75.38-1.1.35s-.72-.08-1.07-.11c-.36-.03-.69-.35-1.05-.38-.36-.03-.78.51-1.14.47-.36-.05-.74-.03-1.08-.08-.36-.05-.74-.06-1.08-.12-.36-.06-.77.06-1.11,0-.36-.08-.57-.86-.92-.93-.36-.08-.75,0-1.08-.09-.36-.09-.75-.06-1.08-.15-.36-.11-.72-.18-1.05-.29-.36-.12-.53-.69-.84-.81-.36-.15-.96.33-1.26.18-.36-.18-.47-.75-.74-.92-.36-.23-.98,0-1.2-.21-.41-.35.05-1.07,0-1.25l-.83.23c-.09-.36.6-1.01.45-1.32s-.92-.33-1.13-.63-.24-.74-.5-.99-.62-.39-.92-.6-.48-.65-.81-.8-.68-.39-1.04-.48-.75-.36-1.11-.39-.75.72-1.11.77-.72-.08-1.08.03c-.36.11-.95-.33-1.28-.18s-.54.66-.84.87-.18.89-.44,1.14-.48.47-.69.77-1.16.2-1.32.53.29.92.18,1.28-.26.69-.29,1.05.38.69.41,1.07-.51.81-.41,1.17l.39-.09c.14.53.21.5.36,1.02s-.45.68-.32,1.2.38.45.51.98.32.47.45.99-.32.65-.17,1.16.33.47.47.99.8.35.93.87-.15.6,0,1.13.11.53.26,1.05.5.42.63.95-.09.59.06,1.11-.09.59.05,1.11.23.5.36,1.02.32.48.45.99-.44.68-.29,1.2.03.56.18,1.07.71.36.86.89.41.45.56.98-.59.72-.45,1.25.17.51.3,1.04.65.39.78.9-.33.65-.18,1.17.47.44.6.96.12.53.26,1.05.51.42.65.95-.44.68-.3,1.2.81.35.95.86-.41.68-.27,1.2.63.39.77.9-.77.77-.62,1.28.53.42.68.93-.17.6-.02,1.13.96.3,1.11.83.03.56.17,1.08-.47.69-.33,1.22.56.41.69.93-.03.57.12,1.1.24.5.39,1.02.29.48.42,1.01.26.5.39,1.02-.32.65-.17,1.17.23.51.36,1.02.24.5.39,1.02.6.41.74.93-.44.68-.29,1.2.54.42.69.95,0,.57.14,1.1-.26.71.06,1.16c.29-.23.65-.51.92-.75s.68-.33.96-.57.78-.23,1.07-.47.35-.72.6-.98.71-.33.96-.6.21-.83.47-1.08.17-.84.41-1.11.96-.12,1.2-.39.35-.66.59-.95.53-.51.75-.81.56-.5.78-.78.26-.72.47-1.02.5-.54.71-.84.14-.78.33-1.1.59-.5.78-.81.32-.66.5-.98.12-.77.3-1.08.21-.71.39-1.02.86-.38,1.02-.71.32-.66.47-.99.36-.65.51-.98.44-.62.59-.95-.33-.95-.2-1.29c.21-.51.29-.33.6-.96.14-.27.23-.66.42-1.04.15-.3.53-.51.72-.86.17-.3.6-.48.8-.81.18-.3.05-.81.24-1.14.18-.3.32-.66.51-.98.2-.3.66-.44.87-.75s.42-.59.63-.9.32-.68.53-.98.29-.71.51-1.01.62-.45.84-.75.65-.42.89-.71.62-.44.86-.72.51-.51.77-.78.39-.63.65-.9.65-.39.9-.65-.14-1.22.14-1.46,1.17.21,1.46-.05.42-.63.71-.87c.27-.23.6-.38.9-.59s.5-.53.81-.72.72-.17,1.05-.35.41-.8.74-.95.81.06,1.16-.08.51-.71.86-.83.63-.51.98-.62.9.57,1.26.5.71-.12,1.05-.17.68-.45,1.04-.47.74.21,1.1.23.69.23,1.05.27.72-.05,1.07.03.9-.41,1.23-.29.32,1.05.63,1.22,1.14-.42,1.43-.2c.14.11.27.57.62.9.21.21.44.5.66.8.2.24.45.51.63.81.17.29.56.53.69.84.12.3,0,.75.09,1.1s.26.72.29,1.07.11.77.08,1.11-.18.74-.26,1.08-.05.77-.15,1.1-1.08.33-1.23.65,0,.77-.15,1.08-.56.48-.74.78-.02.83-.21,1.11c-.2.3-.15.77-.35,1.05-.21.3-1.11.12-1.29.39-.21.32-.12.81-.29,1.08-.21.35-.5.63-.6.9-.15.41-.24,1.02-.06,1.28.18.26.8-.12,1.23-.09.3.02.66.47,1.05.41.32-.05.72.06,1.1-.03.32-.08.63-.33.99-.44.33-.09.5-.78.84-.9.33-.11.77.15,1.13.03.33-.11.81.26,1.16.14.33-.11.62-.36.96-.48s.68-.2,1.02-.3.44-.93.78-1.04.83.29,1.17.17.63-.36.98-.47.6-.47.95-.57.9.62,1.25.53.66-.3,1.01-.39.66-.29,1.01-.36.63-.5.98-.56.77.26,1.11.21.69-.15,1.05-.18.69-.3,1.05-.32.72,0,1.08,0,.74-.32,1.08-.3.66.84,1.01.89.72-.14,1.07-.09.69.09,1.04.17.6.44.93.54,1.02-.75,1.35-.63.53.66.84.81.84.03,1.14.21.53.57.81.78.33.74.59.98.89.18,1.11.45.27.72.48,1.02.17.74.33,1.05.42.59.56.93.14.71.23,1.05-.03.72.03,1.07.26.68.29,1.04.56.71.56,1.07-.48.75-.53,1.1c-.05.38.09.78,0,1.13-.09.36-.51.62-.65.96s.14.92-.05,1.23-.56.56-.8.84-.74.3-1.01.56-.65.3-.96.51c-.29.2-.21,1.04-.54,1.22-.32.17-.68.35-1.02.5-.33.15-.8,0-1.16.14-.33.12-.74.06-1.1.18-.35.11-.56.77-.92.86-.35.09-.87-.48-1.23-.39s-.72.03-1.1.09-.63.62-1.01.68-.81-.56-1.19-.51-.68.42-1.04.47-.71.2-1.08.24-.75-.12-1.13-.09-.71.32-1.08.35-.71.41-1.08.44-1.04-.54-1.42-.51h1.35c.35,0,.72-.02,1.08,0s.71.72,1.07.74.74-.53,1.1-.51.71.27,1.07.29.74-.17,1.1-.14.69.32,1.05.36.77-.36,1.13-.32.72.14,1.07.2.74.03,1.08.11.74.11,1.07.2.68.33,1.01.44.77.06,1.1.2.53.62.84.78.83.06,1.13.26.35.77.62.99.77.27,1.01.54-.18,1.01.02,1.31.54.45.69.78.11.66.21,1.02c.11.33.33.6.39.96.06.35-.06.69-.03,1.05.03.35.86.68.86,1.04s-.26.75-.29,1.1c-.03.38.24.8.18,1.14-.06.38-.44.69-.53,1.04-.11.36-.06.8-.2,1.11-.14.35-.8.44-.98.74s-.21.72-.44.99-.66.35-.93.59-.32.75-.62.96-.75.14-1.08.3-.41.84-.75.98-.81-.09-1.16.03-.65.38-1.01.47-.71.14-1.07.2-.78-.3-1.14-.24-.63.69-1.01.72-.71.23-1.08.26-.74-.17-1.1-.15-.74-.35-1.1-.33-.71.53-1.07.54-.74-.5-1.1-.5-.72.38-1.08.39-.72.11-1.08.11-.84-.38-1.22-.38c.35.08.75.6,1.13.66.36.06.75-.03,1.11.03s.8-.54,1.17-.5.66.74,1.02.78.81-.72,1.17-.68.66.75,1.02.8.77-.24,1.14-.2.8-.3,1.16-.24.59,1.02.95,1.1.8-.29,1.16-.21.74.12,1.08.21.84-.18,1.19-.06.65.45.99.59.65.41.96.59.33.86.63,1.05,1.17-.3,1.45-.05.48.65.71.93.56.59.74.9-.02.84.12,1.2c.12.33.32.66.39,1.04.08.35.36.71.39,1.08.03.36.18.75.18,1.14,0,.36-.44.72-.48,1.07s-.51.6-.6.95-.27.6-.42.92-.17.66-.36.96-.29.63-.51.92.05,1.01-.21,1.26-1.1-.14-1.37.11.02,1.16-.27,1.39-.8.12-1.11.32-.84-.03-1.16.15-.47.6-.8.77-.54.51-.87.65-.68.24-1.01.38-.86-.26-1.19-.12-.68.17-1.02.27-.47.84-.81.95-.86-.41-1.2-.32-.54.69-.89.78-.6.56-.95.63-.81-.38-1.16-.3-.63.48-.98.54-.84-.6-1.19-.54-.59.8-.95.86-.71.12-1.05.18-.78-.47-1.14-.41-.71.11-1.05.14-.65.63-1.01.66-.74-.11-1.08-.08-.74-.29-1.1-.27-.66.81-1.02.83-.72-.02-1.08,0-.72-.14-1.08-.12-.74-.38-1.08-.38-.72.68-1.08.68-.74-.77-1.1-.77-.75.57-1.11.56-.72-.36-1.08-.38-.78.47-1.14.44-.71-.42-1.07-.47-.66-.62-1.02-.66-.8.38-1.14.32-.69-.27-1.05-.35-.71-.18-1.07-.26-.63-.5-.98-.59-.71-.14-1.05-.23-.96.8-1.31.69-.56-.77-.9-.87-.69-.24-1.04-.35-.65-.39-.98-.51-.84.18-1.19.06-.66-.32-1.01-.45-.5-.74-.83-.87-.74-.14-1.05-.29-.78-.06-1.1-.21c-.35-.15-.45-.75-.77-.92-.33-.17-.84.05-1.16-.12-.33-.17-.78-.8-1.1-.96-.53.14-.27.65-.72,1.19-.2.24-.24.69-.53,1.01-.23.24-.33.65-.6.95-.23.26-.47.54-.74.81-.24.26-.6.41-.87.68-.26.26-.32.71-.59.98-.26.24-.6.42-.89.68-.26.24-.74.29-1.02.54-.27.24-.72.29-1.01.54s-.71.29-1.01.53-.66.78-.95,1.02c.18.32.5.89.68,1.2s1.05.2,1.25.51.36.62.56.92-.3,1.05-.11,1.35.84.3,1.05.6.06.84.27,1.13.3.69.51.98.6.45.83.74.33.66.56.95.5.53.72.81.78.29,1.02.56.17.81.41,1.08.86.2,1.11.45.68.35.92.62.18.81.44,1.07.48.54.74.8.44.59.71.83.51.51.78.75.96,0,1.23.24.14.93.41,1.17.83.14,1.1.38.38.68.65.9.84.09,1.13.32.12,1.02.41,1.23.84.08,1.14.29.38.71.68.92.87,0,1.17.2.53.5.83.69.3.86.6,1.05.6.39.92.59.8.06,1.11.24.36.81.68.99.83,0,1.14.18.68.26,1.01.42.39.81.72.98,1.04-.48,1.37-.33.27,1.1.6,1.25.98-.41,1.31-.26.45.77.78.92.83-.11,1.16.03.62.41.95.54.6.42.95.56.77-.02,1.11.11.54.63.89.75.87-.32,1.2-.21.65.33.99.44.53.77.87.87.72.12,1.07.21.78-.14,1.13-.03.71.14,1.05.21.59.69.93.77.78-.21,1.14-.14.72.09,1.07.17.77-.18,1.11-.12.66.35,1.02.41.74-.09,1.1-.03.71.14,1.07.18.74-.09,1.08-.05.62.9.98.93.75-.27,1.11-.24.69.33,1.05.36.74-.21,1.1-.2.74-.33,1.1-.32.71.44,1.07.45.72.06,1.08.06h1.08c.36,0,.74.08,1.1.06s.74-.17,1.1-.18.72-.2,1.1-.21.72-.26,1.08-.27.74.14,1.11.11.75.26,1.13.23.75.12,1.11.09.69-.39,1.07-.42c.38-.03.75.03,1.11-.02s.75.05,1.11,0,.63-.75.99-.81.86.68,1.23.62.72-.15,1.08-.23.71-.21,1.07-.29.6-.69.96-.78.74-.05,1.1-.14.71-.23,1.05-.32.87.42,1.23.33c.35-.09.44-1.13.78-1.23s.74-.03,1.1-.14.87.36,1.22.26.45-.96.8-1.08.98.63,1.32.51.59-.54.92-.66.5-.75.83-.89.83.12,1.16,0,.75-.11,1.08-.24.54-.59.87-.74.89.23,1.22.08.68-.29.99-.45.35-.96.68-1.11.72-.18,1.04-.35.92.2,1.23.03.3-.98.62-1.14.83,0,1.14-.18.8-.09,1.11-.27.56-.5.87-.69.38-.78.68-.98.68-.29.98-.48.45-.63.75-.84.92.06,1.22-.14.48-.59.78-.8.83-.09,1.13-.32.63-.39.92-.6.45-.62.74-.83.6-.42.89-.65.53-.51.81-.74.69-.32.96-.56.14-.96.41-1.2.86-.12,1.13-.36.66-.36.92-.62-.15-1.22.11-1.48.65-.38.9-.63.71-.32.96-.57.69-.33.95-.6.63-.41.89-.68-.11-1.07.14-1.34.53-.5.77-.77,1.01-.11,1.23-.38-.21-1.11,0-1.4.63-.41.86-.69.35-.65.56-.93.66-.41.87-.69.51-.53.72-.83.86-.29,1.07-.59-.39-1.14-.2-1.45.38-.6.57-.92.53-.51.72-.83.3-.66.48-.98.51-.53.69-.84.72-.42.9-.74-.12-.89.06-1.2.74-.44.9-.75.03-.8.2-1.11.42-.6.57-.93.66-.5.81-.83.06-.77.21-1.1.6-.54.74-.87-.47-.98-.33-1.31.24-.68.36-1.01.38-.63.5-.96.53-.59.65-.92.29-.66.41-1.01,0-.77.09-1.11.38-.65.47-.99.41-.65.5-.99.15-.71.24-1.07-.24-.8-.17-1.16.42-.65.5-.99-.35-.8-.27-1.16.84-.57.9-.93-.21-.77-.15-1.13.41-.68.45-1.04-.29-.77-.24-1.13.44-.68.48-1.04-.24-.75-.2-1.11.09-.72.12-1.08-.18-.74-.15-1.1.86-.69.87-1.05-.11-.74-.09-1.1-.75-.74-.75-1.1.06-.72.06-1.08.12-.72.11-1.08.41-.74.38-1.1-.26-.71-.29-1.07.2-.74.17-1.1-.24-.71-.27-1.07.18-.75.14-1.11-.92-.6-.98-.96.9-.87.86-1.23-1.05-.56-1.11-.92.29-.78.23-1.14-.02-.74-.09-1.08.17-.78.09-1.14-.98-.51-1.07-.86.27-.81.17-1.17l.12-.08Z"/>
    <path d="M412.11,292.34c-.35,0-.72-.3-1.04-.36s-.71-.12-1.02-.24-.63-.33-.92-.51-.54-.45-.78-.68-.81-.24-1.02-.51-.36-.66-.53-.98-.27-.71-.36-1.02.2-.77.17-1.1c-.05-.36.33-.69.36-1.05s-.18-.74-.08-1.08.27-.65.44-.98.53-.47.75-.75.45-.48.72-.71.33-.74.65-.92.75,0,1.1-.11.63-.21,1.01-.24c.36-.03.68-.36,1.04-.42s.74,0,1.08-.08.62-.48.96-.57.87.45,1.22.36.42-1.01.75-1.13.65-.27.98-.41.95.39,1.28.24.54-.53.86-.69.6-.39.92-.57.5-.54.8-.74.48-.53.78-.74.74-.21,1.01-.42.8-.17,1.07-.41.05-.99.3-1.25.42-.56.66-.81.69-.32.92-.59.62-.41.84-.69.02-.86.23-1.16.86-.27,1.05-.57-.06-.86.12-1.16.66-.44.83-.75.27-.66.42-.98.68-.5.81-.83.11-.74.21-1.07.32-.66.41-1.01.42-.65.5-1.01-.12-.77-.06-1.11.42-.68.47-1.04-.06-.74-.05-1.1c.02-.36-.23-.74-.23-1.1s-.39-.71-.39-1.07-.11-.69-.14-1.05-.06-.69-.12-1.05-.12-.69-.2-1.04-.15-.68-.23-1.04.09-.75,0-1.1-.26-.66-.36-1.01-.05-.75-.18-1.08-.62-.51-.77-.83.32-.96.15-1.28-.44-.6-.62-.9-.3-.68-.5-.98-1.08-.12-1.29-.41.23-1.08,0-1.35-.41-.63-.65-.89-.54-.51-.8-.77-.98-.03-1.23-.27-.5-.5-.77-.74-.11-1.02-.39-1.23-.6-.44-.9-.63-1.05.29-1.35.09-.41-.71-.72-.87-.74-.12-1.07-.27-.75-.05-1.08-.18-.54-.53-.87-.66-.51-.72-.86-.83-.71-.2-1.05-.29-.83.42-1.19.35-.57-.87-.93-.93-.8.45-1.14.42-.66-.69-1.02-.72c-.38-.02-.63-.06-.98-.15s-.78.18-1.11.02-.57-.41-.86-.63-.92-.12-1.14-.39-.26-.75-.45-1.07-.66-.54-.78-.89.71-.9.66-1.26-.18-.62-.17-.99-.09-.69,0-1.04.29-.62.45-.93.45-.48.66-.77.35-.56.62-.8.35-.66.66-.84.74-.02,1.08-.14.59-.41.95-.47.71-.44,1.07-.41c.36.02.68.65,1.02.69s.69.15,1.05.2.8-.5,1.14-.44.71.15,1.07.21.66.32,1.02.39.81-.26,1.16-.17.74.08,1.08.17.62.47.96.59.8-.06,1.13.06.57.56.9.69.8-.02,1.13.12.32,1.02.65,1.19.93-.24,1.25-.08.6.41.92.59.36.81.66.99.87-.05,1.17.17.33.78.63.99.51.5.8.71.66.32.93.54.95,0,1.22.24.32.74.59.98.17.86.42,1.11.59.41.84.68.32.66.56.93.66.38.89.65.42.57.65.86.68.39.89.68.81.33,1.01.62.12.8.32,1.1-.17.93.02,1.25,1.19.17,1.35.48.2.72.36,1.05.42.6.57.93.12.74.27,1.07.29.66.42,1.01.06.75.18,1.08.24.68.35,1.02.5.62.59.96-.27.81-.2,1.17.29.68.36,1.02-.18.77-.12,1.11.32.68.38,1.02.09.71.12,1.07.27.69.3,1.05-.32.74-.3,1.1.48.71.48,1.07-.36.72-.38,1.08.42.74.39,1.1c-.02.36-.38.71-.41,1.07s.44.78.39,1.14-.96.59-1.02.95.39.8.32,1.16.21.8.12,1.14-1.04.48-1.14.83.14.78.03,1.13,0,.77-.12,1.1-.21.71-.33,1.04-.32.66-.47.99-.24.69-.39,1.02-.3.66-.47.99-.05.8-.23,1.13-.5.57-.68.89-1.02.23-1.22.53.14.95-.06,1.25-.98.2-1.19.48.05.93-.18,1.22-.71.36-.93.65-.29.71-.53.98-.86.18-1.1.45,0,1.02-.24,1.26-.96.05-1.22.29-.03,1.05-.3,1.29-.65.38-.93.6-.99-.11-1.28.12,0,1.2-.3,1.42-.65.36-.95.56-.95-.12-1.25.06-.38.77-.69.95-.66.32-.98.5-.8.03-1.13.2-.63.36-.95.51-.63.33-.98.48-.56.56-.89.69-.74.12-1.07.24-.65.38-.99.48-.65.42-.99.51-.92-.69-1.28-.6-.71.08-1.07.15-.62.59-.98.65-.77-.3-1.13-.26-.66.53-1.02.57c-.2.02-.38.54-.57.54l-.03-.06Z"/>
    <path d="M319.71,144.97c-.08.35.68.87.59,1.23s-.96.53-1.04.89.71.89.62,1.25-.53.62-.62.98-.66.57-.75.93.77.93.68,1.29-1.07.47-1.17.83.41.86.32,1.2-.23.69-.33,1.04-.75.54-.86.89.63.93.53,1.29-.63.56-.74.9-.71.53-.81.87.17.8.05,1.14.21.83.11,1.17-.89.47-.99.81.57.96.45,1.29-.89.45-1.02.8.12.81,0,1.14.02.78-.11,1.11-.33.65-.45.99-.81.45-.95.8-.42.6-.56.95.42.95.29,1.29-.54.56-.69.89-.08.75-.21,1.1-.77.45-.92.8.05.81-.11,1.14-.2.71-.35,1.04-.35.65-.5.98-.92.38-1.07.69.14.87-.02,1.2.05.84-.11,1.16-1.22.2-1.39.53-.17.74-.33,1.05,0,.81-.18,1.14-.15.75-.32,1.07-.8.39-.98.71-.41.6-.59.92-.32.66-.5.96-.14.77-.32,1.08,0,.84-.18,1.16-.78.38-.98.69-.27.68-.47.99-.03.84-.23,1.16-1.23.08-1.43.39-.09.81-.29,1.11.14.96-.08,1.26-.95.24-1.16.54-.47.57-.68.87-.68.41-.89.71.08.95-.14,1.25-.83.3-1.05.59-.29.69-.5.99-.53.51-.75.81.17,1.05-.06,1.34-.53.51-.75.8-.96.17-1.19.45-.39.62-.63.9-.29.71-.53.99-.27.74-.51,1.02c-.24.27-.57.47-.81.74s-.23.77-.47,1.04-.92.17-1.16.42-.5.53-.74.78-.47.54-.72.81-.36.65-.6.92-.66.36-.9.63-.66.36-.9.62.03,1.04-.23,1.29-.95.08-1.2.33-.59.42-.84.68-.41.62-.68.86-.03,1.01-.3,1.26-.63.38-.9.63-.66.35-.93.59-.51.5-.78.74-.78.21-1.05.44-.48.54-.75.78-.26.81-.54,1.04-1.01-.09-1.29.14-.41.63-.69.86-.44.6-.72.83-.33.77-.6.98-1.07-.21-1.35,0-.44.62-.72.83-.65.35-.93.56-.47.59-.75.8-.51.53-.81.72-.87,0-1.17.21-.18,1.01-.48,1.2-.9-.05-1.2.15-.51.53-.83.72-.47.6-.78.8-.59.42-.9.6-.48.6-.78.8-.68.29-.98.47-.65.32-.96.5-.54.53-.84.71-.66.29-.98.47-.74.15-1.05.33-.59.44-.9.6-.65.3-.98.48-.53.54-.86.71-1.07-.51-1.39-.35-.5.62-.81.78-.65.32-.98.47-.81-.03-1.14.12-.42.8-.75.95-.89-.2-1.2-.05-.48.69-.81.84-.51.63-.84.77-.6.45-.93.59-.87-.23-1.22-.09-.71.17-1.04.3-.45.83-.78.96-.77.02-1.1.15-.83-.17-1.17-.05-.69.2-1.04.32-.63.38-.96.5-.68.26-1.01.38-.63.38-.98.5-.6.47-.95.59-.66.29-1.01.41-.66.33-.99.44-.75.02-1.1.12-.69.2-1.04.29-.86-.39-1.2-.3-.44,1.13-.78,1.23-.83-.27-1.17-.18-.72.11-1.07.2-.8-.2-1.14-.11-.66.3-1.01.39-.66.3-1.01.38-.62.56-.96.63-.71.17-1.05.24-.71.11-1.07.18-.65.42-1.01.5-.81-.35-1.16-.27-.63.57-.98.65-.83-.5-1.19-.44-.59.84-.93.9-.81-.45-1.17-.39-.74-.06-1.1,0-.74,0-1.08.05-.59.98-.93,1.02-.83-.71-1.19-.66-.71.09-1.07.14-.69.32-1.04.36-.71.2-1.05.24-.77-.42-1.13-.38-.66.57-1.02.6-.75-.3-1.11-.27-.65.72-1.01.75-.72.06-1.07.11-.74-.23-1.1-.2-.72-.11-1.08-.08-.71.24-1.05.26-.72.02-1.07.03-.71.35-1.05.36-.71.21-1.07.23-.75-.57-1.1-.56-.69.59-1.05.6-.74-.33-1.08-.32-.72.12-1.07.12-.72.15-1.07.15-.72-.18-1.07-.18-.72.11-1.07.11-.72-.08-1.07-.08-.72.35-1.07.35-.72-.62-1.07-.62c-.38,0-.72-.14-1.05-.15-.38,0-.74.53-1.07.53-.36,0-.53-.74-.84-.89s-1.01.21-1.25-.05-.66-.63-.77-.96.09-.86.14-1.22.78-.63.83-.98.12-.71.17-1.07-.2-.75-.15-1.11,0-.72.06-1.08.51-.65.59-.99-.33-.78-.27-1.14.15-.71.21-1.05-.23-.78-.17-1.13.96-.54,1.04-.89-.47-.84-.39-1.19.05-.74.12-1.08.74-.57.83-.92.33-.66.42-1.01,0-.74.08-1.1.02-.74.11-1.08.08-.72.18-1.07.17-.71.26-1.05.71-.54.81-.89-.42-.89-.32-1.22.86-.48.96-.83-.08-.78.05-1.11.44-.62.54-.95.02-.75.14-1.1-.35-.89-.23-1.23,1.02-.39,1.14-.72.27-.66.39-1.01-.32-.89-.18-1.22.11-.74.24-1.07.9-.41,1.04-.74.26-.66.41-.99-.3-.92-.15-1.25.77-.45.92-.77.39-.6.54-.93-.03-.81.12-1.13.27-.68.42-.99.08-.77.23-1.1.59-.51.75-.84.36-.62.53-.95,0-.81.17-1.13.36-.63.54-.95.33-.65.51-.96.29-.68.47-.98.59-.5.75-.81.98-.26,1.16-.57.23-.69.42-1.01.2-.72.39-1.02.24-.69.44-1.01.71-.41.9-.71-.26-1.02-.06-1.32.69-.41.89-.71.39-.6.59-.9.44-.57.65-.87.66-.42.86-.71.21-.74.42-1.02.45-.56.66-.86.48-.54.69-.83.06-.86.27-1.14.48-.54.71-.83.45-.57.66-.86.47-.56.69-.83.84-.24,1.07-.53-.09-1.01.14-1.29,1.13,0,1.37-.26.36-.63.6-.9.26-.74.48-1.01.57-.45.81-.72.75-.29.99-.56.54-.47.8-.74-.23-1.2.03-1.46.75-.27,1.01-.53.42-.6.68-.86.78-.24,1.04-.48.48-.54.74-.78.66-.35.92-.6.5-.53.75-.77.3-.72.57-.98.29-.75.56-.99.59-.44.86-.68,1.05.11,1.32-.14.56-.45.83-.69.06-1.04.33-1.28,1.04.12,1.31-.12.42-.6.71-.83.35-.72.63-.95.35-.72.63-.95.93.03,1.22-.2.68-.29.96-.51.39-.68.68-.89.27-.84.57-1.05.96.11,1.25-.11.3-.81.6-1.02.62-.38.92-.57.89.02,1.19-.18.41-.68.71-.87.71-.23,1.01-.42.56-.47.86-.66.53-.53.83-.71.89.08,1.2-.11.38-.77.68-.96.78-.08,1.1-.26.29-.96.59-1.14.87.09,1.19-.08.8-.03,1.11-.21.21-1.13.53-1.29,1.04.44,1.35.27.38-.84.69-1.01.53-.56.86-.72.83.05,1.14-.12.87.15,1.19,0,.33-.99.66-1.14.92.29,1.25.14.33-1.04.66-1.17,1.02.57,1.35.42.27-1.2.6-1.34.9.32,1.25.18.57-.5.9-.63.68-.24,1.01-.38.66-.29.99-.42.62-.39.96-.51.9.39,1.25.27.45-.87.8-.99.77.02,1.11-.11.62-.42.96-.53.84.29,1.19.18.72-.09,1.07-.2.71-.14,1.05-.24.59-.56.93-.65.63-.41.98-.5.68-.24,1.02-.33.83.35,1.17.26.54-.78.9-.86.81.32,1.16.23.66-.32,1.01-.41.74,0,1.08-.09.63-.45.99-.53.8.33,1.16.27.68-.29,1.02-.36.62-.63.98-.69.8.38,1.14.32.74.08,1.1.02.6-.8.96-.86.68-.36,1.04-.41.81.66,1.17.62.71-.09,1.07-.14.72.06,1.08.03.65-.78.99-.83.74.2,1.1.17.74.08,1.1.05.69-.44,1.05-.45.72-.12,1.08-.15.72-.2,1.07-.21.77.77,1.13.75.71-.14,1.07-.15.72.11,1.08.11.71-.3,1.07-.3.72-.38,1.08-.38.72-.03,1.08-.03.72.11,1.08.12.71.54,1.07.56.74-.68,1.1-.66.71.69,1.05.71.74-.53,1.1-.51.74-.12,1.1-.11.71.24,1.07.26.69.51,1.05.54.75-.41,1.11-.38.74-.14,1.1-.11.72.11,1.08.14.68.48,1.04.53.72-.03,1.08.02.69.21,1.05.26.69.26,1.05.3.81-.57,1.17-.51.65.54,1.01.6.63.57.99.63.72.08,1.07.14.86-.71,1.22-.63.68.33,1.02.39"/>
    <path d="M367.85,390.8c-.36,0-.72-.27-1.07-.3s-.75.35-1.11.32-.65-.6-.99-.66-.81.32-1.14.23-.53-.72-.86-.84-.69-.15-1.01-.3-.72-.15-1.02-.35-.77-.21-1.02-.44-.41-.63-.63-.92-.24-.69-.42-.99-.26-.63-.39-.98c-.14-.32-.68-.51-.78-.87-.14-.53.39-.66.26-1.17s-.77-.36-.9-.87-.3-.48-.44-.99.21-.62.08-1.13.35-.65.21-1.17-.54-.42-.68-.93-.42-.45-.57-.96.38-.66.23-1.17-.81-.35-.95-.87.38-.66.24-1.19-.36-.47-.5-.99.12-.59-.03-1.11-.6-.41-.75-.92.32-.65.18-1.17-.09-.54-.23-1.05-.66-.38-.81-.9.09-.59-.05-1.1.03-.57-.11-1.08-.5-.42-.63-.95.65-.72.51-1.25-.11-.53-.24-1.05-.21-.5-.35-1.02-.81-.35-.95-.87.62-.72.48-1.25-.44-.45-.57-.96-.77-.36-.9-.89-.09-.54-.23-1.07.72-.75.59-1.28-.69-.38-.83-.9-.06-.54-.2-1.07-.15-.53-.29-1.04-.41-.45-.54-.98.11-.59-.03-1.11-.21-.51-.35-1.02-.15-.53-.29-1.05.17-.6.03-1.13-.08-.54-.23-1.07-.45-.45-.59-.98-.45-.45-.59-.98.45-.68.3-1.2-.68-.38-.81-.9.38-.66.24-1.19.09-.59-.05-1.11-.59-.41-.72-.93.15-.6.02-1.13-.38-.47-.53-.99-.17-.51-.3-1.04-.03-.56-.17-1.07-.26-.5-.39-1.01.2-.62.05-1.13-.08-.54-.21-1.07-.15-.53-.29-1.05-.38-.47-.51-.99.14-.6,0-1.13-.9-.33-1.04-.84.24-.63.09-1.14-.06-.56-.2-1.08.14-.6,0-1.13-.45-.45-.59-.98-.54-.42-.69-.95.57-.72.44-1.25-.45-.45-.59-.98-.71-.38-.86-.9.54-.71.39-1.23-.74-.38-.89-.9.47-.69.32-1.22-.12-.54-.26-1.07c-.09-.36-.84-.63-.87-.99s.9-.74.93-1.1-.14-.71-.03-1.07.24-.65.39-.98.36-.59.57-.87.56-.39.81-.66.44-.48.74-.69.56-.33.89-.5.56-.39.92-.48.68,0,1.04-.05.65.03,1.01.06.74-.27,1.08-.17.53.54.86.69.9-.17,1.2.05.5.56.75.81.92.23,1.13.53-.32,1.04-.17,1.37,1.05.41,1.16.77c.14.51-.47.68-.33,1.2s-.05.57.09,1.08.5.42.63.95.05.54.18,1.07-.03.57.11,1.08.63.39.77.92-.33.65-.2,1.17.83.35.98.86-.41.66-.27,1.19-.14.59,0,1.11.78.35.92.87-.47.68-.33,1.2.18.51.32,1.02.03.56.17,1.07.92.32,1.05.83.11.53.24,1.05-.72.75-.59,1.26.69.38.83.89.42.45.56.96-.12.59,0,1.11-.33.65-.2,1.16.42.45.56.96-.06.57.08,1.1.38.47.51.99.3.48.44,1.01.39.45.53.98-.65.72-.5,1.25.3.48.44,1.01-.12.59.03,1.11.2.51.35,1.02.65.39.78.9.42.45.56.98.2.51.33,1.04-.57.71-.42,1.23.23.5.36,1.02.32.48.47.99.41.45.54.98.24.5.38,1.02.08.54.23,1.07-.18.6-.05,1.13-.05.57.09,1.1.2.51.33,1.04.2.51.35,1.04.08.54.21,1.07.36.47.51.98.09.53.23,1.05.27.48.41,1.01-.05.57.11,1.1.11.53.26,1.05-.23.62-.08,1.14.68.38.81.9.08.54.21,1.07.35.47.48.99-.41.68-.27,1.2.41.45.54.98.59.41.72.93-.66.74-.51,1.26.6.41.74.93.08.54.21,1.07.54.42.69.95-.33.65-.2,1.17.15.53.29,1.05.59.42.72.95-.32.65-.05,1.13c.32-.02.62.44.99.41.32-.03.68-.09,1.04-.14.33-.05.62-.45.98-.5.33-.06.66-.15,1.01-.23.33-.06.62-.32.96-.41.33-.08.63-.29.98-.36.33-.08.69-.05,1.04-.14s.78.2,1.1.11c.35-.11.48-.84.8-.93.35-.11.86.36,1.17.26.35-.12.54-.57.86-.69.35-.12.92.39,1.22.27.33-.14.62-.39.9-.53.35-.15.09-.62.38-.75,0-.54.15-.48,0-1.01s-.51-.42-.66-.95.42-.66.29-1.17-.41-.45-.54-.96.23-.62.09-1.13-.53-.42-.66-.93-.29-.48-.44-.99.18-.6.05-1.13-.36-.47-.5-.98.32-.65.18-1.16-.5-.42-.63-.95-.18-.51-.33-1.02-.11-.53-.24-1.05-.24-.5-.39-1.02.57-.71.44-1.23-.24-.5-.38-1.02-.57-.41-.71-.93.48-.68.35-1.2-.57-.41-.71-.93-.27-.48-.41-1.01.33-.65.2-1.16-.3-.48-.44-.99-.81-.35-.95-.86-.06-.54-.21-1.05.38-.65.24-1.17-.39-.45-.53-.98-.24-.5-.38-1.01-.24-.5-.38-1.01-.26-.5-.41-1.01.74-.75.59-1.28-.9-.32-1.04-.84-.3-.48-.44-1.01.44-.68.3-1.2.18-.6.05-1.13-.36-.47-.5-.98.11-.59-.03-1.11-.63-.39-.77-.92.44-.68.3-1.19-.53-.42-.66-.95-.63-.39-.77-.92.62-.72.48-1.25-.11-.53-.24-1.05-.8-.35-.93-.87.38-.66.24-1.19-.51-.42-.65-.95.39-.66.26-1.19-.15-.53-.29-1.04-.62-.41-.75-.92.11-.59-.03-1.11-.3-.48-.44-1.01-.56-.41-.69-.93.66-.74.53-1.25-.08-.54-.23-1.05-.74-.36-.87-.89.26-.63.12-1.16-.36-.47-.51-.99.06-.57-.08-1.1-.8-.35-.93-.87.63-.72.48-1.25-.92-.32-1.05-.84-.02-.56-.17-1.08.65-.74.5-1.25-.14-.53-.29-1.05-.74-.36-.87-.89-.09-.54-.24-1.07-.33-.47-.47-.99.08-.59-.06-1.11-.03-.56-.18-1.08.11-.59-.05-1.13.02-.57-.12-1.1c-.09-.36-.93-.57-.96-.93s.18-.77.23-1.13.3-.69.41-1.04-.23-.89-.06-1.22.29-.77.5-1.07.78-.36,1.04-.63.51-.57.81-.78.6-.51.93-.66.86.21,1.22.12c.36-.09.63-.81.99-.84s.78.36,1.14.39.77,0,1.11.09.68.33,1.01.5.77.2,1.07.41.41.68.68.93.27.68.48.98.21.65.36.98.36.56.47.92c.14.53.83.35.98.86s-.59.72-.45,1.23.12.53.26,1.05.57.41.71.93.15.53.29,1.04,0,.56.15,1.07-.21.62-.08,1.13.84.33.99.84.06.54.2,1.05-.15.6-.02,1.11.66.38.8.9-.08.57.06,1.1.21.5.35,1.02-.15.6-.02,1.13.15.53.29,1.04.03.56.17,1.08.35.47.48.99.35.47.48.99-.3.63-.17,1.16-.21.62-.06,1.13,1.07.27,1.2.8.06.54.21,1.07-.39.66-.26,1.19.6.39.74.92.2.51.35,1.02-.12.59.02,1.11.33.47.48.99-.51.69-.38,1.22.06.54.2,1.07.59.41.74.92.17.51.3,1.04.24.5.38,1.02.05.54.2,1.07.15.53.29,1.05.24.5.38,1.02-.38.66-.24,1.19.89.33,1.02.84-.15.6,0,1.13-.51.69-.38,1.22.72.38.86.89-.06.57.09,1.1.59.41.72.93-.18.6-.03,1.13.06.54.2,1.07,0,.56.15,1.08.68.38.81.9-.09.59.05,1.11-.41.68-.27,1.19.81.35.95.87-.14.6,0,1.13-.11.59.03,1.11.33.47.48.99-.29.63-.15,1.16.44.44.57.96.68.38.81.9-.63.72-.5,1.25.14.53.27,1.05.09.54.23,1.07.66.39.8.92.56.41.71.93-.45.68-.32,1.2,0,.57.14,1.08.89.33,1.02.86.15.53.29,1.05-.75.77-.6,1.29.2.51.33,1.04.39.47.53.99-.14.6,0,1.13.35.47.5.99-.08.59.06,1.11.78.36.92.89-.21.62-.08,1.16.12.54.26,1.07c.09.33.08.68.12,1.02s.51.68.5,1.04.15.77.08,1.11c-.06.33-.65.57-.77.92-.11.32-.09.71-.24,1.04-.15.3-.74.35-.95.65-.18.29.06.87-.18,1.16-.21.26-.27.72-.53.98-.24.24-.57.45-.84.69-.26.23-1.01-.17-1.31.06-.27.21-.44.56-.74.75-.29.2-.26.92-.57,1.1-.3.18-.66.26-.99.44-.3.17-.57.45-.9.6-.32.15-.83-.09-1.16.06-.32.14-.56.48-.89.62s-.66.24-.99.36-.69.17-1.02.29-.51.66-.86.77-.68.23-1.02.33-.83-.27-1.17-.17-.57.59-.92.68-.66.27-1.01.36c-.33.09-.72,0-1.05.09s-.68.17-1.02.26-.69.14-1.02.21-.83-.59-1.17-.51-.6.56-.95.62-.62.59-.96.63-.72-.03-1.07,0-.72-.17-1.07-.12-.72-.3-1.07-.27-.68.18-1.02.2-.69.27-1.04.26l.02-.05Z"/>
    <path d="M340.78,319.83c-.36,0-.71-.81-1.07-.81h-1.07c-.36,0-.75.51-1.11.48s-.68-.54-1.04-.57-.72.05-1.08,0-.72,0-1.08-.05-.68-.27-1.04-.33-.68-.27-1.02-.35-.83.41-1.17.33-.59-.66-.93-.75-.68-.24-1.02-.35-.71-.11-1.05-.21-.81.18-1.16.06-.59-.5-.93-.62-.77,0-1.1-.15-.69-.23-1.02-.36-.51-.62-.84-.77-.71-.18-1.04-.33-.56-.5-.87-.66-.54-.48-.86-.66-.9.15-1.22-.03-.36-.8-.68-.98-.96.18-1.28,0-.35-.78-.63-.99-.71-.24-1.01-.45-.62-.39-.9-.6c-.3-.23-.15-.89-.41-1.14s-.63-.38-.83-.68-.48-.54-.63-.89-.3-.66-.38-1.02-.32-.71-.33-1.07-.18-.78-.14-1.14.21-.75.32-1.11.24-.74.41-1.07.6-.51.83-.81c.23-.3.15-.92.42-1.17s.93-.08,1.23-.27.47-.75.81-.89.95.6,1.31.53.62-.59.98-.62.77-.27,1.13-.23.78.08,1.13.2.57.59.9.77.84.06,1.14.29c.29.23.5.54.8.74s.3.86.6,1.07.69.29,1.01.47.83,0,1.16.2.32.96.65,1.13.86-.09,1.19.06.69.23,1.04.36.63.39.98.51.83-.18,1.17-.06.66.3,1.01.41.62.5.96.59.63.48.99.56.83-.41,1.19-.35.62.69.98.75.77-.26,1.13-.21.74-.14,1.1-.11.69.74,1.05.75.75-.38,1.11-.38.74.38,1.1.36.71-.59,1.07-.62.77.36,1.13.32.68-.45,1.04-.51.71-.12,1.07-.2c.35-.06.69-.17,1.04-.24s.77.14,1.11.05.57-.63.9-.72.84.32,1.17.2.78.05,1.11-.09.66-.33.99-.47.62-.41.93-.56.45-.72.77-.89.77-.08,1.08-.24.71-.2,1.02-.38.65-.33.95-.51.72-.23,1.02-.44.29-.84.57-1.07.95.05,1.22-.17.24-.86.51-1.08.81-.17,1.07-.41,0-1.05.26-1.29.5-.5.74-.75.56-.44.8-.71.57-.44.8-.72.63-.41.86-.69-.06-.92.15-1.22.81-.29,1.02-.59.77-.36.96-.66-.12-.92.05-1.22.56-.51.72-.83.56-.53.71-.86-.41-.96-.26-1.29.5-.56.63-.89.3-.65.42-.98.44-.6.54-.95-.15-.78-.06-1.13.95-.5,1.02-.84-.66-.87-.59-1.23.81-.59.86-.93c.06-.36.11-.68.23-1.02s-.09-.83.08-1.14.39-.63.63-.92.51-.56.78-.78.89.05,1.2-.14.39-.75.74-.87.66-.35,1.02-.42.74-.35,1.1-.35.78-.03,1.16.03c.36.06.72.35,1.07.47s.86.03,1.17.2.68.45.96.69.29.81.53,1.1.26.71.45,1.01.27.63.41.98.72.56.78.92-.47.77-.47,1.14-.12.65-.18,1.02c-.06.36-.12.71-.18,1.05s.3.8.23,1.14.27.81.18,1.16-.29.68-.38,1.04-.24.69-.35,1.04-.05.75-.15,1.1-.81.5-.93.83-.51.57-.63.92-.24.68-.38,1.01-.3.65-.45.98-.18.71-.33,1.02-.36.62-.53.93-.23.68-.41,1.01-.26.68-.42.99-.06.8-.24,1.11-.39.62-.59.92-.87.29-1.07.59.21,1.02,0,1.32-.38.63-.6.92-.81.29-1.04.57-.51.51-.75.78-.26.72-.5.99-.5.53-.74.8-.78.26-1.04.51,0,1.02-.26,1.28-.92.09-1.17.35-.12.95-.39,1.19-1.02-.08-1.31.15-.36.69-.65.92-.81.14-1.1.35-.45.59-.74.8-.53.5-.83.71-.63.35-.93.54-.48.57-.8.77-.87-.06-1.17.12-.24,1.02-.56,1.2-.75.12-1.08.29-.86-.12-1.19.05-.65.29-.98.44-.59.44-.92.59-.56.54-.89.68-.54.63-.87.75-.68.3-1.01.42-.75.06-1.1.17-.89-.45-1.23-.35-.54.77-.89.86-.87-.54-1.22-.47-.69.15-1.05.23-.66.36-1.01.44c-.35.06-.65.41-.99.47s-.68.27-1.04.3-.71.05-1.07.09-.72-.14-1.08-.11-.71-.06-1.07-.05-.71.17-1.05.17-.71.45-1.07.45l.05.03Z"/>
    <path d="M407.82,246.86c.05.36-.21.75-.18,1.11s.05.72.08,1.08.11.71.15,1.07.72.66.75,1.02.2.71.23,1.07-.51.77-.48,1.13.26.71.27,1.07.44.71.45,1.07-.66.75-.65,1.11.56.71.57,1.07-.29.74-.27,1.1-.12.72-.12,1.08-.05.72-.05,1.08-.35.72-.36,1.08.23.72.23,1.08-.27.71-.29,1.07,0,.72-.03,1.08.35.74.32,1.1.41.75.39,1.11-.69.68-.71,1.04,0,.72-.03,1.08,0,.72-.03,1.08.21.75.18,1.11-.26.69-.3,1.05-.32.69-.36,1.05.5.8.45,1.16.05.74,0,1.1-.57.65-.63,1.01-.56.65-.6.99,0,.72-.06,1.08.27.78.21,1.14-.38.66-.45,1.02.26.78.2,1.14-.78.57-.86.93.33.81.26,1.16.09.77,0,1.11-.06.74-.15,1.08-1.05.48-1.14.83.2.8.11,1.14.41.86.3,1.2-1.13.44-1.22.78.23.81.12,1.16.05.77-.06,1.11-.69.54-.81.89-.2.69-.32,1.04,0,.77-.11,1.1-.15.72-.27,1.05-.65.53-.77.87.38.9.26,1.25-.81.47-.93.8.26.87.12,1.2-.65.53-.78.86.17.86.03,1.19-.41.62-.56.95-.09.75-.24,1.08-1.11.3-1.26.62-.17.71-.32,1.04.21.9.05,1.22-.17.72-.32,1.05-.68.48-.84.8-.6.51-.77.83.36,1.01.2,1.32-.78.41-.96.72-.24.69-.42,1.01-.29.68-.47.99-.39.6-.57.92-.48.56-.66.87-.72.41-.9.72-.23.71-.42,1.01-.03.83-.23,1.14-.59.48-.78.78-.71.41-.9.71-.33.65-.53.95-.21.72-.41,1.02-.65.44-.86.72-.26.69-.47.99.18,1.02-.03,1.31-1.2,0-1.43.3.35,1.16.12,1.45-.78.32-1.01.6-.41.6-.63.89-.48.54-.72.81-.24.74-.47,1.02-.77.3-.99.59-.72.33-.96.6-.24.75-.48,1.02-.51.51-.75.78-.24.75-.48,1.02-.63.41-.87.66c.02.56.2.53.35,1.07s.14.54.29,1.08-.36.68-.21,1.22.39.48.53,1.02-.06.6.08,1.14.3.5.44,1.05.26.51.39,1.05.56.44.69.98-.38.68-.24,1.22.6.42.75.96-.09.6.06,1.16.5.45.65.99-.03.5.29.98c.26-.26,0-.51.27-.77s.51-.5.78-.75.84-.18,1.1-.44.18-.84.44-1.1.69-.33.95-.59.2-.81.45-1.07,1.13.08,1.39-.2.35-.66.6-.93.39-.63.63-.9.36-.65.6-.92.44-.57.68-.84.36-.65.59-.93.78-.29,1.02-.56.12-.84.35-1.13.5-.53.72-.81.81-.29,1.04-.57.65-.42.87-.71-.12-1.01.09-1.29.23-.74.45-1.02,1.22,0,1.43-.29-.36-1.16-.15-1.46.71-.38.92-.68.84-.3,1.05-.6-.18-1.01.02-1.31.96-.23,1.16-.53.35-.65.54-.95.06-.83.26-1.13.72-.41.92-.71.51-.54.69-.86-.24-.99-.05-1.31.27-.68.45-.99.62-.47.81-.78.56-.51.74-.83.41-.6.59-.92c.18-.32.24-.69.41-1.02s.86-.36,1.02-.68.09-.78.26-1.1-.21-.92-.05-1.25.39-.6.56-.93.84-.39,1.01-.71-.12-.87.05-1.19.74-.45.89-.78.45-.59.6-.92.18-.72.33-1.05.44-.6.59-.93.38-.63.51-.96-.59-1.04-.45-1.37.5-.57.63-.92.05-.77.18-1.1.75-.48.87-.83.06-.75.18-1.1.84-.47.96-.8-.39-.92-.27-1.25.78-.5.9-.83,0-.77.12-1.11.48-.6.6-.95-.39-.89-.27-1.23,0-.75.12-1.1.81-.51.92-.86.27-.68.38-1.02.09-.74.18-1.08,0-.75.11-1.1-.08-.77,0-1.11.23-.69.32-1.04.56-.6.63-.96.5-.63.59-.98-.63-.89-.54-1.23.63-.6.71-.95.5-.63.57-.99.12-.72.18-1.07.26-.69.32-1.05-.48-.83-.42-1.19.03-.72.11-1.08.17-.71.23-1.07.09-.72.15-1.07.23-.69.29-1.05.42-.68.47-1.04.26-.69.3-1.05-.47-.78-.42-1.14.2-.71.23-1.07-.3-.75-.27-1.11.17-.71.2-1.07.2-.71.23-1.07.3-.71.33-1.07-.11-.74-.09-1.1-.05-.72-.03-1.08.56-.69.57-1.05-.12-.74-.11-1.1.3-.72.32-1.08-.62-.74-.62-1.1-.21-.72-.21-1.08.17-.72.17-1.08.45-.72.45-1.08.05-.72.05-1.08.02-.72,0-1.08-.2-.72-.21-1.08-.18-.72-.2-1.08-.29-.71-.3-1.07.14-.74.11-1.1.14-.74.11-1.1.33-.75.3-1.11.05-.74.02-1.1-.42-.69-.45-1.05-.35-.69-.38-1.05.44-.78.39-1.14-.47-.68-.51-1.04.41-.78.36-1.14-.36-.68-.42-1.04-.32-.69-.36-1.04.06-.74,0-1.1-.33-.68-.39-1.04.12-.75.06-1.11-.66-.62-.72-.96,0-.74-.06-1.08.09-.75.03-1.11.12-.77.05-1.11,0-.74-.09-1.1-.87-.54-.95-.9.06-.75-.03-1.1-.14-.71-.23-1.07-.11-.72-.2-1.07-.44-.63-.53-.98-.17-.71-.26-1.05.18-.8.08-1.14-.2-.69-.3-1.04-.75-.53-.86-.87,0-.75-.12-1.1.15-.81.05-1.16-.59-.57-.71-.9.21-.83.09-1.17-.29-.66-.41-1.01-.57-.56-.71-.9-.53-.57-.66-.9.51-.96.38-1.31-1.14-.33-1.28-.66-.23-.68-.36-1.02.09-.81-.05-1.14.03-.8-.11-1.13-.92-.39-1.07-.72-.29-.66-.44-.99-.12-.74-.27-1.07.27-.92.12-1.25-.95-.35-1.1-.68-.41-.6-.57-.92.23-.92.06-1.23-.54-.53-.71-.86-.18-.72-.35-1.04-.12-.75-.29-1.07-.87-.35-1.04-.66-.56-.51-.72-.83-.27-.68-.45-.98-.47-.56-.65-.87-.17-.74-.35-1.05-.32-.65-.5-.96-.53-.51-.72-.83.09-.9-.11-1.2-.83-.33-1.02-.63.12-.93-.09-1.23-.99-.21-1.19-.51.05-.9-.15-1.2-.18-.75-.39-1.05-.78-.33-.99-.63-.02-.87-.23-1.17-.39-.62-.6-.9-.51-.53-.72-.81-.38-.63-.59-.92-.98-.17-1.19-.45-.47-.54-.69-.83-.2-.77-.42-1.04-.2-.78-.42-1.05-.57-.47-.81-.74-.23-.75-.47-1.02-.75-.32-.98-.59-.41-.6-.65-.87-.51-.51-.75-.78-.87-.2-1.11-.45.14-1.1-.12-1.37-1.1.03-1.34-.23,0-.99-.24-1.26-.63-.39-.89-.66-.83-.2-1.08-.45-.17-.86-.42-1.11-.59-.44-.84-.69-.84-.17-1.1-.42.03-1.07-.24-1.32-.81-.18-1.08-.44-.33-.71-.59-.96-.83-.15-1.1-.39-.27-.78-.54-1.02-.48-.56-.75-.78-.5-.54-.77-.78-1.08.17-1.35-.08-.59-.42-.86-.65c-.29-.23-.27-.81-.54-1.04s-.39-.66-.68-.89-.86-.08-1.14-.3-.5-.54-.78-.75-.44-.62-.72-.84-.54-.5-.83-.71-1.05.21-1.34,0-.2-.95-.5-1.16-.59-.42-.89-.62-.62-.38-.92-.59-.53-.51-.83-.72-.6-.41-.9-.6-.98.18-1.28-.02-.5-.54-.81-.74-.29-.9-.59-1.1-.8-.09-1.11-.27-.68-.27-.99-.45-.6-.39-.92-.57-.71-.21-1.02-.39-.6-.39-.92-.57-.3-.93-.62-1.11-.6-.41-.92-.59-.93.21-1.25.05-.47-.66-.78-.83-.75-.12-1.07-.29-.57-.48-.89-.65-.83.05-1.16-.11-.74-.14-1.05-.3-.29-1.08-.62-1.23-.74-.12-1.07-.27-.84.11-1.17-.05-.44-.8-.77-.95-.86.17-1.19.03-.48-.72-.81-.86-.86.18-1.19.05-.63-.36-.96-.5-.47-.78-.81-.92-.89.29-1.22.15-.77,0-1.1-.12-.57-.56-.9-.68-.74-.06-1.08-.18-.62-.42-.96-.54-.63-.38-.98-.5-.78.09-1.13,0-.6-.48-.95-.59-.65-.33-.99-.44-.75,0-1.1-.09-.6-.51-.95-.62-.89.54-1.25.45-.63-.42-.98-.51-.65-.36-1.01-.45-.72-.06-1.08-.15-.77.14-1.13.05-.56-.8-.92-.87-.74.02-1.1-.06-.65-.45-.99-.53-.89.74-1.23.68-.56-.96-.9-1.02-.75.06-1.1,0-.8.38-1.14.32-.6-.83-.96-.87-.8.5-1.16.44-.74.08-1.1.03-.65-.56-1.01-.6-.66-.5-1.02-.54-.74.11-1.1.06-.77.45-1.13.41-.69-.35-1.05-.39-.77.47-1.13.44-.69-.42-1.05-.44-.68-.57-1.04-.6-.72-.05-1.08-.06-.75.6-1.11.59-.69-.81-1.05-.83-.75.89-1.11.87-.71-.81-1.07-.81-.72.17-1.08.17-.72.45-1.08.45-.72.11-1.08.11-.72-.53-1.08-.53-.72-.02-1.08,0-.72.15-1.08.17-.72.12-1.08.14-.72.15-1.07.18-.74-.17-1.1-.15-.74-.18-1.1-.17-.68.65-1.04.68-.77-.48-1.13-.45-.66.74-1.02.77-.74-.15-1.1-.12-.78-.5-1.14-.45-.71.23-1.07.27-.69.36-1.04.41-.8-.44-1.14-.39-.62.84-.98.89-.68.35-1.04.41-.84-.65-1.19-.59-.68.36-1.04.42-.72.09-1.08.15-.65.48-.99.56-.84-.54-1.2-.48-.54.95-.9,1.02-.84-.47-1.19-.39-.68.27-1.04.35-.57.72-.92.81-.8-.24-1.16-.17-.69.21-1.04.3-.66.3-1.02.39-.74.02-1.1.12-.65.35-1.01.45-.65.36-.99.47-.89-.44-1.23-.33-.66.32-1.01.42-.74.08-1.08.2-.42,1.02-.77,1.14-.8-.09-1.13.03-.59.48-.93.6-.74.09-1.07.21-.63.39-.96.51-.89-.29-1.22-.15-.75.06-1.1.2-.68.27-1.01.41-.36,1.02-.71,1.16-1.02-.56-1.35-.41-.32,1.1-.65,1.23-.77.05-1.1.2-.86-.14-1.19,0-.3,1.07-.63,1.22-.81-.03-1.14.12-.8.02-1.13.18-.6.42-.93.57-.6.41-.92.57-.54.53-.86.71-.74.17-1.05.33-.8.05-1.11.21-.56.48-.87.66-.54.51-.86.69-.42.71-.74.89-.98-.23-1.28-.05-.3.92-.6,1.1-.9-.08-1.2.11-.62.38-.93.57-.41.72-.71.92-1.01-.23-1.31-.03-.48.6-.78.8-.53.51-.83.72-.8.11-1.1.32-.12,1.1-.41,1.31-.68.3-.96.51-.8.14-1.08.35-.56.47-.84.68-.3.8-.6,1.01-.98-.08-1.26.14-.18.95-.47,1.17-.87.06-1.16.29-.65.36-.93.59-.08,1.05-.35,1.28-.87.08-1.16.32-.48.54-.77.78-.6.42-.87.66-.71.3-.98.54-.62.41-.89.65-.5.54-.75.78-.03,1.02-.3,1.28-1.01-.02-1.28.23-.5.53-.75.78-.54.48-.8.74-.05.98-.3,1.23-.9.12-1.16.38-.81.23-1.07.48,0,.99-.26,1.25-.66.38-.9.63-.68.36-.92.63-.23.78-.47,1.05-.81.24-1.05.51.03.99-.21,1.26-.99.09-1.23.38-.09.87-.32,1.16-.27.71-.51.99-.53.5-.77.78-.68.39-.9.68-.69.38-.92.66-.15.8-.38,1.08-.74.35-.96.63-.12.81-.33,1.11-.65.42-.86.72-.38.62-.59.92-.33.66-.54.95.05.9-.17,1.2-.95.23-1.14.53.15.96-.05,1.28-.68.42-.87.72-.75.38-.95.68.15.95-.05,1.26-.5.54-.69.84-.15.75-.33,1.07-.63.45-.83.77-.27.68-.45.99-.57.51-.75.83-.86.36-1.02.68,0,.83-.18,1.14.14.89-.03,1.22-.63.48-.8.8-.24.69-.41,1.01-.15.72-.32,1.05-.38.62-.53.95-.8.42-.95.75-.18.72-.33,1.05,0,.8-.15,1.13-.47.59-.62.92-.32.65-.45.99-.5.57-.65.9-.44.6-.57.93.5.98.36,1.32-.27.66-.41,1.01-.6.54-.72.87-.63.54-.77.87-.35.65-.47.99.24.86.12,1.2-.29.66-.41,1.01-.59.57-.69.92.03.77-.09,1.11.11.8,0,1.14-.75.53-.86.87-.3.66-.41,1.01-.3.68-.39,1.02.21.81.11,1.16.05.77-.05,1.11.08.77,0,1.11-.15.71-.23,1.05-.72.57-.81.92-.27.68-.35,1.04.48.84.41,1.2-.27.68-.35,1.04-.11.72-.17,1.07-.81.57-.89.93-.03.74-.09,1.08-.21.69-.27,1.05.62.84.56,1.19-.21.69-.26,1.05-.23.69-.29,1.05-.68.63-.72.99.15.75.11,1.11c-.05.35.54.71.54,1.07s-.99.75-.95,1.1.29.71.36,1.05.96.44,1.08.75-.3.87-.14,1.19.17.74.36,1.04.42.62.65.87c.23.27.44.62.71.86s1.13-.27,1.42-.08.26.89.56,1.05.81-.11,1.14.02.41,1.05.74,1.14.75.08,1.1.14.75-.32,1.11-.32.72-.29,1.08-.27.71.62,1.07.62.72-.5,1.08-.5.72.24,1.08.24.72-.24,1.08-.24.72-.29,1.08-.3.72.42,1.08.42.72.11,1.08.09.74.26,1.1.24.72-.27,1.08-.27.74.27,1.1.26.69-.86,1.05-.87.74.23,1.1.21.74.27,1.1.26.69-.5,1.05-.53.74.3,1.1.29.72-.08,1.08-.11.71-.26,1.07-.29.74.12,1.1.09.72-.11,1.07-.14.68-.48,1.04-.51.78.54,1.14.5.69-.38,1.04-.42.78.42,1.13.38.69-.33,1.05-.38.69-.32,1.04-.36.74.06,1.1,0c.36-.06.71-.17,1.07-.21s.77.27,1.13.21.69-.26,1.05-.3.77.17,1.11.11.6-.74.96-.8.78.32,1.14.24.6-.72.95-.78.66-.36,1.02-.44.72-.06,1.07-.12.81.39,1.17.32.63-.51.98-.59.81.32,1.16.23.54-.86.89-.95.81.29,1.16.21.8.24,1.16.15.5-.99.84-1.08.86.45,1.2.36.62-.51.96-.6.75,0,1.1-.09.53-.77.87-.87.95.66,1.29.56.51-.81.86-.92.71-.14,1.05-.24.86.33,1.2.23.54-.68.87-.8.53-.66.87-.78.87.33,1.22.21.69-.18,1.04-.3.59-.48.93-.6.56-.54.9-.68.98.53,1.31.41.66-.3.99-.44.44-.86.77-.99.71-.17,1.04-.3.69-.21,1.02-.36.69-.21,1.02-.35.68-.24,1.01-.38.65-.33.98-.47.5-.65.83-.8.63-.35.96-.5.99.42,1.32.27.69-.24,1.01-.39.33-.96.65-1.13.56-.48.87-.65.92.23,1.25.06.57-.47.89-.63.45-.69.77-.86.87.09,1.19-.08.69-.23,1.01-.41.69-.24,1.01-.42.5-.57.81-.75.32-.87.62-1.05.77-.11,1.08-.3.84,0,1.14-.2.39-.72.71-.92.75-.15,1.07-.35.74-.2,1.04-.39.21-.98.51-1.17,1.01.21,1.31,0,.3-.83.6-1.04.42-.66.71-.86,1.07.26,1.37.05.24-.89.54-1.1.5-.53.78-.75.56-.45.84-.66.8-.15,1.08-.36.39-.66.68-.89.81-.14,1.1-.36.72-.27.99-.5.39-.66.66-.9.41-.63.68-.86.59-.42.86-.65.45-.57.72-.81.48-.54.75-.78.42-.6.69-.84,1.07.11,1.34-.14.29-.75.56-.99.75-.26,1.01-.51.03-1.01.29-1.26.36-.65.62-.9,1.14.12,1.4-.14.5-.53.74-.8.44-.59.69-.84.48-.54.72-.8.05-.93.29-1.2.65-.38.89-.65.17-.81.41-1.08,1.01-.06,1.25-.33.23-.77.45-1.04.66-.38.9-.65.23-.77.45-1.04.98-.14,1.22-.41-.26-1.14-.03-1.42,1.02-.12,1.25-.41-.21-1.08.02-1.37,1.22.02,1.43-.27.35-.65.57-.93-.15-1.02.06-1.31.74-.36.95-.66.35-.65.56-.95.24-.72.44-1.02,1.1-.12,1.29-.42.11-.8.32-1.1.21-.74.41-1.04.5-.54.71-.84.51-.54.71-.84-.05-.89.15-1.2.5-.54.69-.86.74-.41.92-.71.56-.51.75-.83-.06-.87.12-1.19.8-.38.98-.69.38-.62.56-.93-.35-1.02-.18-1.34.96-.3,1.14-.62.41-.62.57-.93-.47-1.07-.3-1.39.93-.33,1.1-.65.62-.5.78-.83.09-.77.26-1.1,0-.8.17-1.13.5-.57.65-.89.65-.5.8-.83-.08-.83.08-1.16.23-.69.36-1.02-.08-.83.06-1.16.9-.39,1.05-.74,0-.78.15-1.11.69-.5.83-.84.05-.77.18-1.1-.18-.86-.06-1.19.23-.69.36-1.02.89-.44,1.02-.78,0-.78.11-1.13.33-.66.45-.99.59-.57.71-.9-.42-.92-.32-1.26.66-.54.78-.89-.12-.8,0-1.14.62-.57.72-.92-.03-.77.08-1.11-.18-.81-.08-1.16.57-.59.68-.93.65-.57.75-.92.21-.69.32-1.05-.3-.83-.21-1.19.38-.65.47-1.01.3-.33.39-.69c.35.09.5-.36.84-.27s.65.36.99.45.65.38.99.48.68.27,1.02.36.66.3,1.01.41.78-.08,1.13.03.81-.15,1.16-.05.62.42.96.54.65.36.98.47.53.66.87.78.87-.29,1.22-.17.5.74.83.87.66.27,1.01.39.99-.53,1.32-.39.68.26,1.02.39.45.78.78.92.71.18,1.04.33.72.15,1.05.3.63.35.96.5.8.03,1.11.18.44.75.77.92.56.5.87.66.74.15,1.05.32.81.02,1.13.18.72.2,1.04.38.54.54.86.71.59.45.89.63.5.59.81.77.45.66.75.84,1.11-.45,1.42-.26.2,1.05.51,1.25.59.42.89.62.95-.14,1.25.06.69.27.99.47.15,1.07.45,1.28.69.26.99.47.62.39.9.59.62.38.92.59.86.05,1.14.27.69.29.98.51,0,1.19.3,1.42.81.12,1.1.35.92,0,1.2.23.48.57.75.8.44.62.71.84c.29.23.14.98.41,1.2s.87.09,1.14.32.47.57.74.81.75.24,1.02.48.51.51.78.75.77.23,1.04.48.29.77.54,1.01.8.21,1.05.47.26.78.51,1.04.09.93.35,1.19.75.27,1.01.53.59.44.84.69.29.72.54.99.39.63.63.89,1.19-.11,1.43.17.05.95.29,1.2.6.42.84.69.65.41.89.68.39.62.62.9.15.81.39,1.08.92.18,1.14.47-.15,1.05.08,1.32.51.51.74.8.89.23,1.11.51.68.41.89.69.14.81.35,1.1-.06.93.15,1.22.8.32,1.01.62.15.78.36,1.07.71.39.9.69.27.69.48.99.68.42.87.72.57.5.75.81.24.71.44,1.01.38.62.57.93,0,.84.18,1.16.53.53.71.84.2.72.38,1.04.84.36,1.02.68.33.65.51.96-.2.92-.03,1.25.59.51.75.83.53.54.69.87.08.77.24,1.1.53.54.69.87.32.65.47.98.5.57.65.9-.18.87-.03,1.2c.15.33.05.77.18,1.1s.48.59.62.92.27.66.41,1.01.56.56.68.89.06.75.2,1.08.36.63.5.98.5.59.62.93.41.63.53.96-.17.83-.05,1.17-.09.8.02,1.13.17.71.27,1.05.72.53.83.87-.03.77.08,1.11.12.72.23,1.07.57.59.66.95-.08.77.02,1.11.18.71.26,1.05.21.69.3,1.04.21.69.29,1.04-.35.81-.27,1.17c.08.36.84.56.92.92s.2.69.27,1.05.33.68.41,1.02.17.71.23,1.07.11.72.17,1.08,0,.74.06,1.1.14.72.18,1.07-.32.78-.27,1.14-.14.75-.09,1.1.29.69.33,1.05l-.05-.17ZM286.86,200.28c-.24.27-.69.36-.93.63s-.5.53-.74.8-.45.57-.69.84,0,.98-.24,1.25-.39.63-.63.9-.9.15-1.16.41-.35.66-.6.93-.21.81-.47,1.07-1.01.03-1.26.29-.14.89-.39,1.14-.72.29-.99.54-.62.41-.87.66-.56.47-.83.71-.77.23-1.04.47-.38.66-.65.9-.71.29-.98.53-.54.48-.81.72-.32.75-.59.99-.27.81-.56,1.04-.96-.05-1.25.18-.53.5-.81.71-.53.5-.81.72-.41.66-.69.89-.69.29-.98.51-.72.23-1.02.45-.24.92-.54,1.11-.51.54-.81.75-.87.02-1.17.23-.84.03-1.14.24-.53.5-.84.69-.39.74-.69.93-.75.17-1.05.36-.41.72-.71.92-.95-.18-1.26,0-.36.8-.68.98-.5.59-.81.77-.57.45-.9.63-1.07-.45-1.39-.27-.45.69-.77.86-.36.89-.68,1.05-1.08-.53-1.42-.36-.45.72-.77.89-.54.56-.86.71-.87-.14-1.2.02-.65.33-.98.48-.56.53-.89.68-.62.38-.95.53-.84-.11-1.17.03-.41.9-.74,1.04-.9-.27-1.23-.14-.47.78-.8.92-.83-.11-1.16.02-.51.71-.84.84-.72.12-1.07.26-.62.45-.95.57-.98-.6-1.32-.48-.63.38-.98.48-.51.77-.84.89-.63.39-.98.5-.81-.15-1.16-.05-.78-.08-1.13.03-.47.96-.81,1.07-.84-.29-1.19-.18-.66.32-1.01.41-.68.27-1.02.36-.71.14-1.07.23-.74.05-1.08.14-.8-.23-1.16-.14-.66.33-1.02.41-.62.57-.96.65-.75-.08-1.11,0-.78-.21-1.14-.14-.69.23-1.05.3-.66.38-1.02.44-.77-.15-1.11-.08-.68.32-1.04.38-.59.86-.95.92-.87-.84-1.23-.78-.56,1.07-.92,1.13-.78-.32-1.14-.27-.71.15-1.07.2-.72.05-1.08.11-.68.38-1.04.42-.77-.3-1.13-.26-.75-.26-1.11-.21-.69.39-1.05.42-.72.03-1.08.06-.69.39-1.05.42-.74-.12-1.1-.09-.72.12-1.08.15-.72.06-1.08.08-.75-.47-1.11-.45-.71.3-1.07.32-.74-.18-1.1-.15-.72.2-1.08.21-.72.14-1.08.15-.71.45-1.07.47-.74-.53-1.11-.51-.72.5-1.08.5-.74-.23-1.1-.21-.72.38-1.1.38-1.01-.08-1.39-.08c.06-.36.11-1.01.17-1.35s.12-.71.2-1.07.59-.62.66-.98-.32-.8-.24-1.14.41-.65.48-1.01-.26-.8-.17-1.14,1.01-.51,1.1-.86-.02-.74.06-1.1.05-.72.14-1.08.03-.74.12-1.08.15-.71.24-1.05.05-.74.15-1.08.6-.57.71-.92-.23-.83-.12-1.16.27-.68.38-1.02.66-.54.77-.89.47-.6.59-.93-.44-.92-.32-1.25,0-.77.12-1.11,1.16-.33,1.29-.68-.66-1.02-.54-1.35.6-.54.72-.87.74-.48.89-.81-.39-.95-.26-1.28.89-.41,1.04-.74.23-.69.38-1.01-.08-.83.08-1.14.66-.5.81-.81.44-.59.59-.92-.35-.96-.18-1.29.21-.71.38-1.02.59-.51.75-.83.53-.54.69-.86.38-.62.56-.93.23-.69.41-1.01.84-.35,1.02-.66.11-.77.29-1.08-.17-.93.02-1.25.44-.59.62-.89.87-.3,1.07-.62-.03-.87.17-1.17.78-.36.98-.66.53-.51.72-.81.29-.68.48-.98.53-.51.74-.8.48-.54.69-.83-.36-1.14-.15-1.43.62-.45.83-.74.23-.72.45-1.01.84-.27,1.07-.56.27-.71.48-.99.93-.18,1.16-.47-.08-.99.15-1.26.9-.2,1.13-.47.27-.71.5-.99.66-.38.9-.65-.02-.96.23-1.23.32-.69.56-.95.95-.12,1.19-.38.53-.48.78-.75.41-.6.65-.87.35-.66.6-.92.3-.71.56-.96.54-.48.8-.74.78-.24,1.04-.48.75-.26,1.01-.51-.03-1.08.23-1.32.86-.14,1.13-.38.77-.23,1.04-.47.51-.5.78-.74.62-.39.89-.63.14-.95.41-1.17.5-.54.77-.77.59-.42.86-.65.54-.48.83-.71.63-.36.92-.57.77-.2,1.05-.41.66-.3.96-.53.24-.89.53-1.1.65-.35.93-.56.36-.74.65-.95.65-.33.95-.54.68-.3.96-.51.74-.21,1.02-.41.51-.53.81-.74.56-.48.86-.68.89.05,1.19-.15.53-.51.83-.71.75-.14,1.07-.33.29-.92.6-1.1.51-.57.81-.75.71-.21,1.02-.39.84.03,1.16-.14.65-.3.98-.47.65-.32.96-.48.56-.48.87-.65.57-.47.89-.62.54-.54.86-.71.72-.17,1.05-.32.72-.15,1.05-.3.81.05,1.14-.11.69-.2,1.02-.35.51-.62.84-.75.56-.54.89-.68.86.2,1.19.06.53-.62.86-.75.86.21,1.19.08.57-.51.9-.65.6-.45.93-.57.74-.08,1.07-.2.6-.45.95-.56.75,0,1.1-.11.51-.74.86-.84.74-.08,1.08-.18.75.02,1.1-.09.77.06,1.11-.05.72-.06,1.07-.15.5-.89.84-.98.75.03,1.1-.06.71-.14,1.05-.23.72-.11,1.07-.18.65-.42.99-.5.71-.14,1.07-.21.78.23,1.13.15.71-.14,1.05-.21.6-.71.95-.77.75.08,1.1.02.77.27,1.13.21.65-.5,1.01-.56.78.35,1.14.3.71-.17,1.05-.21.66-.45,1.02-.5.68-.39,1.04-.44.8.72,1.16.69.62-1.02.98-1.05.72-.02,1.08-.05.75.33,1.11.32c.35-.03.72.29,1.07.26s.65-.74,1.01-.75.71-.05,1.05-.06.71.17,1.05.15.72.6,1.07.6.68-.72,1.02-.72.69-.12,1.05-.12.69.6,1.05.6.71-.26,1.05-.24.71.18,1.05.2.69.27,1.05.27.72-.57,1.08-.56.72-.21,1.07-.2.71.12,1.05.15.72-.09,1.07-.06.69.29,1.04.3.71.12,1.05.15.72-.12,1.07-.09.65.62.99.65.77-.45,1.11-.41.63.68.98.72,1.14-.39,1.49-.35c-.09.35-.65.96-.74,1.31s-.45.63-.56.98.24.83.15,1.17-.68.56-.77.92-.24.68-.35,1.04-.12.72-.23,1.07-.3.66-.41,1.01.42.9.3,1.25-.2.71-.32,1.05-.54.59-.66.93-.56.57-.68.92-.11.74-.23,1.08-.53.57-.66.92.09.81-.05,1.14-.35.65-.47.99-.23.69-.36,1.02.21.87.08,1.2-1.05.35-1.19.68.47.99.33,1.32-.92.39-1.07.72-.14.74-.29,1.07.11.84-.05,1.17-.75.45-.9.78-.23.71-.38,1.02.09.86-.06,1.19-1.04.3-1.2.62.05.84-.12,1.16-.6.51-.77.83.05.86-.12,1.17-.71.44-.89.77-.44.59-.62.9-.44.59-.62.9.35,1.04.17,1.35-.33.66-.51.96-.78.39-.96.69-.6.48-.8.78.02.87-.18,1.17-.5.56-.69.86-.59.48-.78.78-.47.56-.66.87.26,1.05.05,1.35-.95.23-1.16.53-.42.6-.63.89-.39.62-.6.92-.53.51-.75.8-.44.57-.66.87.11.99-.12,1.28-.6.47-.81.75-.93.2-1.16.48-.18.78-.41,1.07-.36.65-.6.92-.65.41-.89.68h-.03Z"/>
    <path d="M403.55,449.67c.26-.26.71-.75.93-1.02s1.02-.12,1.23-.42c.21-.3.27-.71.45-1.02s.32-.66.48-.99-.33-.9-.21-1.23.23-.63.32-.99.39-.62.45-.98.35-.66.39-1.02.41-.69.42-1.05-.21-.74-.21-1.1-.39-.71-.41-1.07,0-.72-.05-1.08.02-.72-.05-1.08-.42-.65-.51-.99.38-.84.27-1.19-.15-.74-.27-1.07-.23-.71-.38-1.04-.59-.53-.75-.86,0-.84-.21-1.16-.38-.65-.6-.95-.72-.38-.96-.65-.56-.47-.81-.74-.45-.57-.72-.81-.3-.81-.59-1.02c-.29-.23-1.07.23-1.37.03s-.59-.39-.9-.57-.26-1.05-.59-1.22-.68-.33-1.01-.48-.72-.23-1.07-.35-.77-.06-1.11-.17-.74-.08-1.1-.17-.68-.32-1.04-.39-.74-.05-1.1-.11-.71-.26-1.07-.29-.74-.06-1.1-.09-.74.11-1.11.11-.74.03-1.1.05-.74,0-1.1.03-.75-.17-1.11-.14-.72.12-1.1.17-.63.71-.99.77-.86-.69-1.22-.62-.59.78-.95.86-.84-.38-1.2-.29c-.33.09-.69.11-1.01.18s-.56.54-.87.63-.32-.09-.65,0c.05-.33-.27-.32-.24-.66s.56-.66.56-1.01-.77-.65-.78-.99.24-.69.2-1.04-.39-.6-.47-.93.33-.81.21-1.14-.93-.39-1.07-.71.63-1.05.48-1.37-.75-.39-.93-.69-.08-.81-.27-1.08-.62-.44-.84-.69-.68-.32-.93-.57-.42-.56-.69-.78-.2-.87-.48-1.08c-.29-.23-1.04.21-1.34,0s-.3-.92-.62-1.08-.96.35-1.29.21-.62-.32-.96-.42-.44-1.01-.8-1.1-.89.63-1.23.56-.69,0-1.05-.05-.68-.18-1.04-.21-.69-.6-1.05-.6-.74-.21-1.1-.18-.66.71-1.02.74-.74-.2-1.1-.15-.75-.12-1.11-.06-.59.63-.95.72-.77-.08-1.11.03-.72.12-1.05.24-.68.27-1.01.41-.59.48-.9.62-.83-.06-1.14.11-.59.47-.9.63-.71.24-1.01.42-.35.81-.65,1.01-.54.47-.83.68-1.07-.21-1.35,0c-.29.23,0,1.14-.27,1.37s-1.04-.08-1.31.17-.32.74-.59.99-.24.78-.5,1.04-.92.12-1.16.39-.26.75-.51,1.02-.74.32-.98.6-.53.51-.77.8-.3.69-.53.98-.8.32-1.01.6-.45.59-.66.87-.21.77-.42,1.05-.6.48-.8.78.23,1.04.03,1.34-.74.39-.93.69c-.2.32-.51.56-.69.86-.2.32.08.92-.11,1.22-.2.33-1.02.27-1.19.56-.2.33.3,1.02.14,1.32-.2.35-.95.35-1.1.65-.2.36,0,.87-.15,1.14-.27.56-.06,1.05-.09,1.13s-.75-.14-.78-.06c-.14.33.17.86.02,1.19s-.32.66-.45.99-.86.39-1.02.72.48,1.05.32,1.37-.75.44-.92.75-.06.8-.24,1.11-.69.44-.87.74-.6.47-.8.77-.32.65-.53.95.2,1.02-.02,1.31-.77.35-.98.63-.41.6-.63.89-.3.69-.54.96-.95.14-1.17.41-.33.68-.57.93-.15.86-.41,1.11-.56.48-.81.72-.95.03-1.22.27-.32.74-.59.96-.63.38-.9.59-.77.18-1.05.39-.35.74-.65.95-.6.39-.9.59-.81.06-1.11.24-.36.8-.68.98-.83-.03-1.14.15-.35.92-.66,1.07-.69.23-1.02.38-.81-.06-1.14.08-.69.18-1.04.32-.42.93-.77,1.05-.71.2-1.05.3-.68.27-1.02.38-.9-.57-1.25-.48-.62.48-.96.57-.69.23-1.04.3-.65.51-.99.57-.86-.87-1.22-.81-.6.86-.96.9-.72.05-1.08.08-.75-.44-1.11-.41-.71-.02-1.07,0-.69.83-1.05.83-.72-.09-1.08-.09-.69-.9-1.05-.92-.71.08-1.07.06-.77.72-1.13.69-.71-.24-1.05-.29-.71-.11-1.07-.15-.65-.53-1.01-.59-.72.02-1.08-.05-.71-.11-1.05-.18-.65-.39-.99-.47-.71-.06-1.07-.15-.83.38-1.17.29-.57-.62-.92-.71-.72-.09-1.07-.2-.86.3-1.19.2-.69-.2-1.04-.32-.38-1.11-.71-1.25-.86.26-1.2.14-.53-.63-.87-.77c-.33-.14-.92.33-1.25.2s-.66-.3-.99-.45-.69-.23-1.02-.39-.29-1.02-.6-1.19-1.05.45-1.37.29-.42-.74-.72-.92-.63-.33-.95-.53-.83-.05-1.13-.24-.14-1.1-.44-1.29-.48-.54-.77-.75-1.14.35-1.43.14-.32-.78-.59-1.01-.86-.09-1.13-.32-.24-.84-.51-1.08-.68-.32-.95-.56-.53-.5-.78-.75-.21-.81-.47-1.07-1.01-.02-1.26-.27.03-1.01-.21-1.28-.75-.3-.98-.57-.77-.3-.99-.59.11-1.01-.12-1.28-.32-.65-.54-.93-.81-.29-1.02-.59-.63-.45-.83-.74.3-1.05.11-1.35-.41-.57-.6-.89-.8-.36-.96-.68,0-.81-.17-1.13-.93-.32-1.1-.63-.26-.68-.41-1.01-.44-.6-.59-.92.41-.96.27-1.29c-.15-.35-.33-.72-.53-1.02s-1.05-.11-1.29-.36-.32-.66-.6-.87-.51-.53-.84-.69-.66-.27-1.01-.38-.68-.27-1.04-.32-.72-.02-1.08,0-.63.42-.99.51-.72-.05-1.07.11c-.35.15-.96-.2-1.26,0s-.65.48-.92.72-.39.69-.62.99-.51.59-.68.92-.17.77-.27,1.11-.32.71-.36,1.08.23.75.24,1.13.41.65.5,1.01.3.59.45.93c.14.33-.05.8.11,1.13s.6.51.77.83-.47,1.02-.32,1.34.63.5.8.81.72.44.89.75.23.69.41,1.01.06.8.26,1.1.75.39.93.69.42.59.62.89-.15.96.05,1.26.59.47.8.77.08.83.29,1.13.8.32,1.01.6.11.83.32,1.11.41.6.65.89.65.41.89.68.45.57.69.84.53.5.77.77.84.2,1.08.47-.08,1.07.18,1.32.59.44.84.69.78.23,1.05.47.29.77.54,1.01.68.33.95.57.53.5.8.72.84.12,1.11.35.2.92.48,1.14,1.02-.17,1.31.06.53.48.83.69.11,1.11.39,1.31.86.02,1.16.21.32.84.62,1.04,1.11-.42,1.42-.23.15,1.14.47,1.32.78.11,1.1.27.78.08,1.1.24.74.14,1.05.3.66.27.98.44.42.78.75.93.78.03,1.1.18.74.11,1.07.26.33,1.1.66,1.23,1.01-.59,1.34-.47.38,1.05.71,1.17.65.36.99.48.84-.2,1.17-.09.77-.02,1.11.09.53.75.87.86.81-.23,1.16-.12.69.2,1.04.29.77-.11,1.11,0,.48,1.07.83,1.16.72.12,1.07.2.78-.18,1.13-.12.65.5.99.56.74,0,1.1.06.81-.53,1.17-.47.63.68.99.72.71.26,1.07.29.77-.39,1.13-.36.71.35,1.05.38.77-.63,1.13-.6.68.99,1.04.99.74-.32,1.1-.32.72.23,1.08.23.71-.87,1.07-.87.72.23,1.08.21.72.17,1.08.14.77.47,1.13.44.71-.35,1.05-.39.65-.68,1.01-.72.78.42,1.14.38.68-.32,1.04-.38.77.18,1.11.12.69-.21,1.05-.29.66-.35,1.02-.42.63-.44.98-.53.83.3,1.17.2.53-.8.86-.9.89.45,1.23.33.68-.26,1.02-.36.63-.38.96-.51.57-.51.9-.65.86.21,1.2.08.38-.95.71-1.1,1.02.51,1.35.36.48-.66.81-.83.6-.41.92-.57.41-.75.72-.92.93.18,1.23,0,.47-.62.77-.81.72-.21,1.02-.41.48-.57.78-.77.72-.21,1.02-.42.78-.15,1.07-.38.3-.8.59-1.02.29-.8.56-1.02,1.04.14,1.32-.11.51-.53.77-.77.69-.33.95-.57.29-.74.54-.99.59-.44.83-.69.38-.65.62-.9.59-.44.83-.71.62-.42.86-.69-.03-.96.2-1.25.75-.3.98-.59.47-.54.69-.84.72-.36.93-.66.03-.86.24-1.16.3-.66.51-.96.75-.38.95-.68.33-.65.53-.96.54-.53.72-.83-.18-.93,0-1.25,1.02-.26,1.2-.57.09-.78.26-1.1-.29-.95-.14-1.28.56-.53.71-.86.51-.56.66-.89-.05-.8.09-1.14.87-.42,1.01-.75c.08-.15,0-.57.24-1.04.14-.27.21-.62.41-.98.15-.29.65-.41.83-.74.17-.29-.21-.92-.02-1.23.18-.29.35-.6.54-.92.18-.29.83-.3,1.02-.6s.14-.75.33-1.04.2-.72.41-1.01.39-.6.6-.89.42-.57.65-.86.39-.6.62-.87,1.08,0,1.32-.27.53-.47.77-.72.45-.53.69-.78.44-.56.69-.8.24-.78.51-1.01.72-.23,1.01-.45c.3-.24.69-.29,1.01-.48s.33-.92.68-1.08.83-.03,1.17-.18.6-.59.96-.69c.38-.12.8-.06,1.16-.15.39-.09.74-.38,1.1-.41.42-.05.86-.3,1.19-.27.47.05.93.42,1.16.6.23.17.6.51.65.68.06.24-.68.57-.89,1.02-.15.32.15.92-.06,1.26s-.32.75-.53,1.05c-.24.38-.66.57-.84.83-.18.26-.74.3-.95.63-.18.27-.12.74-.32,1.05-.17.29-.72.41-.89.74s.18.86.05,1.19-.5.57-.59.92-.12.71-.17,1.05.2.71.21,1.05.08.66.14,1.01.36.56.48.9c.11.32-.38.89-.2,1.2.15.3.29.68.5.98.23.3.59.51.81.77.26.27.87.11,1.14.33.29.23.18,1.04.5,1.22s.65.5.99.62.86-.3,1.22-.23.74-.38,1.1-.36.69.69,1.07.68.74.05,1.1,0,.75.08,1.11,0,.51-1.04.87-1.13.8.3,1.16.2.69-.2,1.04-.3.81.21,1.17.11.53-.74.87-.84.87.32,1.22.21c.33-.11.42-.95.75-1.05s.77.14,1.1.03.68-.17,1.01-.27.56-.54.89-.63.62-.41.95-.5.8.24,1.13.15.74.02,1.07-.08c.35-.09.69-.06,1.02-.14s.57-.77.9-.81.69-.24,1.04-.27.75.38,1.08.36.71.08,1.04.09c.36,0,.69.03,1.04.06.36.03.78-.5,1.11-.44.36.06.6.66.92.75.35.11.74.06,1.04.2.33.15.83.11,1.08.32.21.17.29.63.5.93.15.23.12.59.24.93.09.27.33.53.38.89.05.29.42.62.42.96,0,.24-.35.65-.63,1.04-.15.21-.56.26-.93.5-.26.15-.62.08-1.01.23-.29.12-.54.36-.9.47-.3.09-.62.21-.99.3-.32.08-.68-.03-1.05.05-.32.06-.6.41-.96.47-.33.05-.6.6-.96.65-.33.05-.78-.78-1.14-.74-.33.05-.63.48-.99.51-.33.03-.65.53-1.01.56-.33.03-.71-.2-1.07-.17-.35.03-.74-.6-1.1-.59-.35.02-.68.41-1.04.42s-.63.59-.98.66-.62.23-.95.36-.89-.21-1.19,0-.62.42-.87.66-.62.45-.83.74-.53.57-.71.89-.45.66-.56,1.01.35.84.3,1.2-.3.69-.29,1.07c0,.36.15.72.23,1.07s.44.6.57.93-.02.8.17,1.1.44.59.68.86.57.44.86.66.65.27.96.45.42.81.75.95.86-.51,1.22-.44.63.93.99.93.72-.89,1.07-.89.71.86,1.05.86.74-.75,1.08-.75c.38,0,.72.3,1.05.32.38.02.75-.29,1.08-.26.38.03.74.02,1.08.05.38.03.74.11,1.07.15.38.05.63.8.96.84.38.06.68.29.99.35.39.08.89-.47,1.19-.38.39.12.77.24,1.04.38.38.18.36.81.57,1.02.29.29.98.32,1.07.63.09.35-.66.78-.66,1.14,0,.39.36.75.32,1.08-.05.36-.02.78-.24,1.08-.2.24-.66.2-1.04.39-.27.14-.42.81-.83.92-.3.09-.72,0-1.11.06-.32.06-.75-.44-1.14-.38-.33.05-.62.72-.99.75-.33.03-.74-.5-1.11-.47-.35.02-.68.3-1.05.33-.35.02-.71-.06-1.08-.05-.35,0-.69.47-1.07.48-.35,0-.72-.24-1.08-.24s-.71.27-1.08.27c-.35,0-.72-.24-1.1-.24-.35,0-.71-.24-1.05-.18s-.54.59-.87.69-.77-.09-1.07.08-.27.78-.54.99-1.13-.23-1.35.02-.21.75-.41,1.04-.14.69-.27,1.01-.86.44-.95.77.26.78.23,1.13.47.66.48.99-.39.71-.3,1.04-.29.86-.15,1.17.98.29,1.16.59-.14.96.09,1.22.44.63.71.84.6.47.9.65.9-.23,1.22-.11.59.39.93.45c.36.08.72.08,1.1.14s.77-.24,1.14-.2.63.83,1.01.86.77-.17,1.13-.14.75-.05,1.11,0c.39.05.74.38,1.1.41.39.05.77.09,1.11.14.39.05.84-.47,1.19-.42.41.06.72.42,1.07.48.41.08.8.05,1.13.12.42.09.8.14,1.11.23.44.12.84.18,1.11.32.45.23.74.57.89.81.21.33.17.75.17,1.14,0,.26-.44.39-.74.77-.18.24-.42.41-.74.68-.24.21-.12.95-.45,1.17-.27.18-.68.24-1.01.42-.29.17-.8-.06-1.14.11-.3.15-.57.38-.92.53-.32.14-.59.39-.93.53-.32.12-.6.41-.95.51-.33.11-.68.18-1.02.29-.33.11-.8-.26-1.14-.15-.33.09-.69.11-1.04.2-.33.08-.57.6-.93.68-.35.08-.72-.05-1.08.02s-.65.35-1.01.41-.75-.27-1.11-.21-.6.77-.96.81-.78-.51-1.14-.47-.65.57-1.01.6-.74-.26-1.1-.23-.72-.15-1.08-.12-.69.36-1.05.38-.69.24-1.05.27-.71.09-1.08.11-.74-.62-1.1-.62-.72.66-1.08.66-.72-.72-1.08-.74-.74.42-1.1.41-.71-.36-1.07-.39-.72,0-1.08-.03-.77.33-1.13.29-.74,0-1.1-.08-.68-.38-1.04-.44-.69-.24-1.05-.32-.63-.48-.98-.57-.74-.02-1.08-.11-.71-.12-1.07-.23-.72-.14-1.07-.24-.63-.38-.98-.5-.74-.09-1.08-.21-.87.23-1.2.08-.47-.77-.81-.92-.66-.29-.99-.44-.56-.5-.89-.66-1.04.45-1.37.29-.65-.38-.96-.54c-.33-.18-.62-.27-.96-.38s-.6-.51-.96-.56-.71.17-1.08.18-.66.12-1.02.21-.63.2-.98.33-1.07-.45-1.39-.26-.59.54-.87.8-.17.87-.39,1.16c0,0-.32.27-.77.8-.2.23-.59.38-.87.68-.23.24-.03.93-.3,1.2-.24.24-.57.44-.84.71-.24.24-.72.29-.99.56-.26.24-.83.17-1.1.42-.26.24-.42.59-.71.84-.26.24-.33.71-.62.95s-.69.3-.98.54-.8.17-1.08.41-.11,1.01-.41,1.23-.95-.03-1.23.2-.17.96-.47,1.19-.84.08-1.14.3-.32.81-.62,1.02-.96-.11-1.26.11-.44.65-.75.86-.66.33-.96.53-.51.56-.81.75-.42.71-.74.9-.66.32-.98.5-.78.12-1.1.3-.75.15-1.07.32-.68.29-.99.45-.59.45-.9.62-.47.71-.78.86-.69.26-1.02.41-.93-.27-1.26-.12-.35.99-.68,1.14-.93-.33-1.28-.2-.57.51-.92.65-.45.84-.78.98-.95-.41-1.28-.29-.53.69-.86.81-.75.08-1.1.2-.63.41-.98.51-.68.27-1.02.38-.65.38-.99.48-.93-.59-1.28-.48-.59.6-.93.69-.77-.08-1.13.02-.63.5-.98.57-.81-.3-1.17-.23-.71.14-1.07.21-.66.38-1.02.45-.68.3-1.04.38-.78-.23-1.14-.17-.68.3-1.04.36-.65.57-1.01.62-.74,0-1.1.05-.8-.48-1.16-.44-.62.96-.98.99-.74-.09-1.11-.06-.71.27-1.07.3-.75-.17-1.11-.14-.77-.66-1.14-.65-.71.21-1.08.23-.72,0-1.08,0-.72.3-1.08.3-.72.14-1.1.14-.74.17-1.1.17-.72-.14-1.08-.14-.71-.53-1.07-.54-.72.17-1.08.15-.75.62-1.11.59-.72-.2-1.08-.23-.72-.06-1.08-.09-.69-.45-1.04-.48-.72-.08-1.08-.11-.72.02-1.08-.03-.74.03-1.1-.02-.71-.17-1.07-.23-.74.02-1.1-.05-.68-.36-1.02-.42-.62-.57-.98-.65-.75.12-1.11.05-.75.08-1.11,0-.71-.14-1.07-.23-.62-.5-.96-.59-.68-.23-1.02-.33-.92.62-1.26.51-.53-.75-.87-.86-.65-.36-.98-.47-.71-.17-1.04-.29-.89.38-1.23.26-.53-.68-.87-.8-.57-.53-.9-.65-.9.35-1.25.21-.75-.09-1.08-.23-.45-.81-.78-.95-.72-.15-1.05-.29-.59-.45-.92-.6-.78-.05-1.1-.2-.33-.95-.66-1.11-.93.27-1.26.11-.51-.59-.83-.75-.87.11-1.19-.08-.56-.48-.87-.66-.29-.95-.59-1.13-.8-.06-1.11-.24-.42-.69-.72-.89-.71-.23-1.01-.42-.83-.05-1.13-.24-.8-.11-1.1-.32-.09-1.13-.39-1.34-.9.03-1.2-.18-.83-.11-1.11-.33-.45-.62-.74-.83-.44-.62-.72-.84-.68-.32-.96-.54-.51-.53-.78-.75-.63-.38-.9-.62-.68-.33-.93-.57-.41-.63-.68-.87-.05-1.02-.3-1.26-.53-.48-.78-.74-.86-.15-1.11-.41-.53-.5-.78-.75-.36-.66-.62-.92-.65-.38-.9-.65-.2-.8-.44-1.07-.33-.66-.57-.93-1.16.06-1.4-.23-.5-.53-.74-.81,0-.93-.23-1.22-.56-.48-.78-.75-.18-.77-.41-1.05-.92-.21-1.13-.5-.36-.63-.57-.93-.51-.53-.72-.81.02-.89-.18-1.19-.63-.45-.83-.75-.74-.39-.93-.69-.44-.59-.63-.89-.35-.65-.53-.95-.29-.68-.48-.98.15-.92-.03-1.23-.32-.65-.48-.96-.27-.66-.44-.99-.32-.65-.48-.96-.75-.42-.92-.75.18-.89.03-1.22-.45-.59-.6-.9-.24-.68-.39-1.01-1.02-.35-1.16-.68-.38-.63-.51-.96.56-.99.42-1.34-.83-.45-.96-.78-.3-.66-.42-.99.08-.8-.05-1.13.09-.8-.02-1.13-.53-.59-.63-.93-.47-.62-.57-.96-.09-.72-.2-1.07-.27-.68-.36-1.02-.24-.68-.33-1.04.51-.87.44-1.22-.78-.56-.87-.9-.29-.68-.36-1.04-.06-.72-.14-1.08-.45-.65-.51-1.01.74-.86.68-1.22-.6-.63-.65-.99-.3-.69-.36-1.04-.15-.71-.2-1.07.71-.81.66-1.17-.2-.69-.23-1.05.11-.72.08-1.08-1.05-.65-1.08-1.01.63-.77.62-1.13-.62-.69-.63-1.05.87-.75.87-1.11-.12-.71-.14-1.07-.71-.72-.71-1.08.51-.72.51-1.07-.59-.74-.57-1.1.93-.68.95-1.04-.24-.72-.23-1.08-.03-.72,0-1.08-.5-.77-.47-1.13.75-.65.8-.99-.44-.78-.39-1.14.83-.6.89-.96.06-.71.12-1.07-.14-.75-.06-1.1-.26-.78-.18-1.13.35-.66.42-1.02.03-.74.11-1.08.12-.71.21-1.07.24-.68.33-1.04.39-.63.5-.98.35-.65.45-.99-.2-.81-.09-1.16.77-.51.89-.84-.39-.89-.27-1.22.39-.63.51-.96.42-.62.54-.95.09-.74.21-1.07.71-.5.84-.83.12-.72.26-1.05.21-.69.35-1.02.45-.59.59-.92.3-.65.45-.98-.09-.83.06-1.16.29-.66.44-.98-.06-.83.11-1.16.77-.42.92-.74c.15-.32.29-.66.45-.98s.11-.75.29-1.07.15-.75.32-1.05,1.14-.18,1.31-.5-.11-.89.08-1.2.62-.47.8-.78.06-.8.26-1.11.35-.63.54-.93.89-.29,1.08-.59.26-.68.47-.98.53-.51.72-.81,0-.87.2-1.17.11-.81.32-1.1,1.22-.02,1.43-.32.26-.69.48-.99.53-.51.74-.8.17-.78.38-1.07.15-.8.38-1.08,1.07-.06,1.29-.35-.12-1.02.12-1.29.65-.39.89-.68.27-.71.51-.98.41-.6.63-.87,1.04-.05,1.28-.3-.14-1.1.11-1.35.89-.17,1.13-.42.18-.81.44-1.08.99-.03,1.25-.29-.11-1.13.15-1.39.62-.41.87-.65.41-.62.68-.86,1.17.2,1.43-.05.36-.66.62-.9.26-.8.51-1.04.69-.17.96-.39c.32.18.44.54.75.72s.63.35.95.53.6.42.92.59,1.08-.48,1.4-.32.45.68.78.84.78.06,1.1.23.57.45.9.62.54.54.86.71.59.45.92.6.53.59.84.74.75.09,1.08.24.78.02,1.11.17.65.3.98.45.74.11,1.07.26.53.62.86.75.56.56.89.68.62.41.95.54.83-.15,1.17,0,.77,0,1.1.14.74.08,1.08.2.6.47.93.59.54.66.87.78.8-.09,1.14.02.68.24,1.02.36c.35.11.71.17,1.04.27s.78-.11,1.13,0,.57.57.92.66.78-.11,1.13,0,.54.74.89.83.68.26,1.02.35.78-.15,1.13-.06.75-.03,1.1.06.65.35,1.01.44.8-.24,1.14-.17.48,1.1.84,1.17.87-.65,1.22-.57.54.96.89,1.04.78-.27,1.14-.21.65.44,1.01.51.78-.33,1.14-.26.72,0,1.08.05.71.08,1.07.14.66.39,1.02.44.72.05,1.07.09.72.05,1.07.09.72-.05,1.08,0,.74-.14,1.1-.11.71.15,1.05.18.68.51,1.02.54.72-.06,1.08-.03.72-.12,1.08-.09.68.62,1.04.65.77-.78,1.13-.77.66.92,1.02.93.72-.05,1.08-.03.74-.3,1.08-.29.72.03,1.08.03.71.36,1.07.36.72-.8,1.08-.8.72.93,1.08.93.72-.32,1.08-.32.72.23,1.08.21.72-.11,1.08-.12.71-.36,1.07-.38.74.54,1.1.53.66-1.04,1.02-1.05.74.3,1.1.27.75.54,1.11.51.71-.3,1.05-.33.68-.44,1.04-.47.68-.41,1.04-.44.81.89,1.17.84.62-.92.98-.95.71-.15,1.05-.2.83.77,1.17.72.69-.29,1.04-.33.65-.51,1.01-.57.75.15,1.1.09.66-.41,1.01-.47.74.08,1.1,0,.75.14,1.1.06.69-.2,1.05-.26.78.21,1.13.14.53-1.01.87-1.08.8.32,1.16.24.68-.29,1.02-.36.8.27,1.14.18.69-.21,1.04-.3.6-.57.95-.66.81.29,1.16.2.69-.21,1.04-.32.5-.89.84-.98.8.2,1.14.09.6-.51.93-.62.65-.33.99-.44.87.39,1.22.27.6-.45.95-.57.75-.03,1.08-.15.47-.81.81-.93.95.53,1.29.41.47-.81.8-.95.8.08,1.13-.06.77-.03,1.1-.17.36-1.02.69-1.16.74-.08,1.07-.21.5-.66.83-.8.86.18,1.17.03.57-.48.89-.63.75-.06,1.08-.21.87.17,1.19,0,.44-.77.75-.92.59-.44.9-.59.81.05,1.14-.12.5-.6.81-.77.74-.14,1.05-.3.59-.42.9-.59.36-.84.68-1.01.69-.23,1.01-.39.59-.41.9-.59.74.03,1.04-.15c0-.54.06-.54-.09-1.07s-.6-.41-.75-.93.32-.65.18-1.17-.17-.51-.32-1.04.09-.59-.06-1.11-.02-.56-.17-1.08-.39-.45-.54-.98.23-.62.09-1.14-.24-.5-.39-1.02-.08-.54-.21-1.07-.2-.51-.33-1.05-.35-.51-.65-.98c-.3.2-.39.8-.71.99s-.78.09-1.1.27-.92-.14-1.23.05-.38.78-.69.96-.42.72-.74.9-.87-.09-1.19.08-.57.45-.9.62-.83-.05-1.16.12-.54.51-.87.68-.77.09-1.08.24-.26,1.11-.59,1.26-.84-.09-1.17.06-.74.14-1.05.29-.74.11-1.07.26-.66.3-.98.44-.71.17-1.04.32-.36,1.01-.69,1.14-.78,0-1.11.14-.62.41-.95.53-.81-.11-1.14.02-.59.5-.92.63-.72.11-1.07.23-.72.12-1.07.24-.68.26-1.01.38-.5.81-.84.93-.75.03-1.1.14-.78-.11-1.13,0-.65.38-.99.48-.59.59-.93.69-.9-.56-1.25-.47-.51.9-.86.99-.72.12-1.07.21-.81-.29-1.16-.2-.78-.18-1.13-.11-.66.32-1.02.39-.71.12-1.05.2-.65.42-1.01.5-.75-.11-1.11-.05-.59.81-.95.87-.78-.26-1.13-.2-.69.29-1.04.35-.77-.24-1.13-.2-.75-.17-1.11-.12-.62.81-.98.86-.8-.59-1.16-.54-.68.48-1.02.51c-.36.05-.71.17-1.07.21s-.74-.21-1.1-.18-.68.53-1.04.56-.74-.12-1.1-.09-.74-.18-1.1-.15-.71.18-1.07.2-.72.09-1.08.11-.72.03-1.08.05-.72-.08-1.08-.06-.72.45-1.07.45-.72-.84-1.08-.84-.72.24-1.08.24-.72-.02-1.08-.03-.72-.05-1.08-.05-.71-.27-1.07-.29-.74.51-1.1.5-.69-.54-1.05-.56-.71-.12-1.07-.15-.78.77-1.13.75-.69-.38-1.05-.41-.72,0-1.08-.03-.72-.06-1.08-.09-.65-.66-1.01-.71-.75.29-1.11.24-.75.17-1.1.12-.65-.59-.99-.63-.8.42-1.14.36-.6-.8-.95-.86-.87.84-1.23.78-.69-.23-1.05-.3-.63-.54-.98-.62-.65-.42-.99-.5-.75.11-1.11.02-.72-.09-1.07-.18-.77.15-1.13.06-.53-.89-.87-.98-.78.18-1.13.09-.8.17-1.14.08-.68-.26-1.02-.35-.72-.12-1.07-.21-.68-.29-1.01-.39-.63-.39-.98-.5-.71-.14-1.05-.24-.75-.08-1.1-.18-.74-.12-1.08-.24-.66-.33-1.01-.45-.44-.93-.78-1.05-.8.08-1.14-.06-.63-.38-.98-.5-.74-.12-1.07-.26-.5-.72-.83-.86-.99.5-1.34.35-.56-.54-.89-.69-.74-.14-1.07-.29-.36-.96-.69-1.11-.84.09-1.17-.06-.81,0-1.14-.15-.35-.95-.68-1.11-.86.08-1.17-.09-.53-.57-.84-.75-.93.2-1.25.02-.39-.81-.71-.99-.8-.08-1.11-.26-.33-.9-.65-1.08-.63-.36-.95-.54-.69-.26-1.01-.44-.83-.05-1.14-.23-.63-.38-.93-.57c-.32-.2-.45-.77-.78-.9s-.81.03-1.16-.05-.74-.12-1.1-.14-.72.12-1.08.17-.84-.32-1.19-.21-.38.98-.71,1.14-1.1-.38-1.4-.15c-.29.21-.26.84-.54,1.07s-.32.75-.59.98-.75.2-1.04.44-.92.03-1.19.26-.39.65-.66.89-.17.9-.44,1.14-.99-.03-1.26.21-.15.9-.41,1.14-.65.36-.92.6-.48.53-.75.78-.62.39-.87.65-.75.27-1.01.53-.57.45-.83.71.09,1.08-.15,1.35-.51.51-.75.77-.87.18-1.11.44.06,1.02-.18,1.29-1.14-.05-1.39.23.03.98-.21,1.25-.78.27-1.02.56-.57.47-.81.74-.2.78-.42,1.05-.36.63-.59.92-.38.62-.6.9-.63.42-.84.72-.81.3-1.02.59.27,1.1.05,1.39-.68.41-.89.69-.41.6-.62.9-.54.5-.74.8-.78.35-.98.65.21,1.02.02,1.32-.39.6-.59.9-.84.32-1.02.63-.42.59-.62.89-.36.63-.56.93.15.93-.03,1.25-.72.41-.9.72-.27.68-.45.99-.44.59-.62.9-.8.39-.98.71-.06.8-.24,1.11.08.86-.11,1.17-.62.5-.78.81-.63.5-.8.83.42,1.01.26,1.34-.99.33-1.14.66.35.96.2,1.29-.36.63-.51.96-.71.48-.86.81.08.83-.06,1.16-.29.66-.42.99-.83.45-.96.78.23.87.11,1.2-.24.68-.38,1.02,0,.77-.14,1.11-.95.44-1.07.78-.47.62-.57.96.53.93.41,1.28-.3.66-.41,1.01-.63.57-.72.92,0,.75-.09,1.11-.66.57-.75.92.18.8.09,1.16.18.8.11,1.14-.65.59-.74.95,0,.75-.06,1.1.06.75,0,1.11-.5.65-.56.99.47.81.39,1.17-.23.69-.29,1.05.05.74,0,1.1-.63.65-.68,1.01.11.74.06,1.1.03.74,0,1.1-.18.71-.21,1.07-.63.68-.66,1.04.93.78.9,1.16-.11.71-.12,1.08-.75.69-.77,1.05,0,.72,0,1.1.06.74.06,1.1.68.72.69,1.08-.68.74-.66,1.1.32.72.33,1.08.27.71.29,1.07-.21.74-.18,1.1.06.72.09,1.08.17.71.2,1.07.15.71.18,1.07-.26.75-.21,1.11-.09.74-.05,1.1.59.66.63,1.01-.53.8-.48,1.16.9.6.95.95-.77.86-.71,1.22.18.71.24,1.07.05.74.12,1.08.86.57.93.92-.3.8-.23,1.16.74.57.81.93-.53.87-.45,1.22.23.69.32,1.04.29.68.38,1.02.44.63.53.98-.08.77.03,1.11.15.71.26,1.05.41.63.51.98.08.74.18,1.08.44.62.56.96-.26.86-.14,1.2.33.65.47.99.68.51.81.86.56.56.69.89-.47.98-.33,1.31.23.69.36,1.04.77.45.92.78-.12.86.03,1.19.44.6.59.92.27.68.44,1.01.92.35,1.08.68.06.78.23,1.1.48.57.65.89.42.6.59.92.56.51.74.83-.03.84.15,1.16.6.48.78.8-.14.93.06,1.23.83.33,1.02.65-.06.89.15,1.2,1.07.17,1.26.47-.44,1.17-.24,1.48.69.41.9.69.48.54.69.84.26.71.48.99.44.59.65.87.54.5.77.78.74.35.96.62.36.63.59.92.35.65.59.93.72.33.95.62.41.6.65.87,0,.96.24,1.23.56.48.8.74.86.18,1.11.45.71.32.96.59.36.65.62.9.05.98.3,1.23.54.48.8.74.47.57.72.83,1.08-.11,1.35.14.51.5.78.74-.02,1.11.26,1.35.74.27,1.01.5.92.05,1.19.27.29.78.57,1.01.74.24,1.01.47.74.23,1.02.45.5.53.78.75.59.42.87.63.56.45.86.66.26.89.56,1.08.89,0,1.17.2.56.47.86.66.5.54.81.75.87-.03,1.17.17.18,1.07.5,1.26.87-.05,1.19.15.3.9.62,1.1,1.07-.41,1.39-.23.51.56.83.74.42.74.74.9.75.14,1.07.3.54.53.87.69.62.38.95.54.56.53.87.68.83-.06,1.16.09.81-.06,1.14.09.63.36.96.51.53.62.86.75.54.59.89.72.72.17,1.05.3.77.03,1.1.17.81-.14,1.16,0,.66.29,1.01.41.59.51.93.62.72.12,1.07.24.62.45.96.56.65.36.99.47.8-.17,1.14-.06.81-.21,1.16-.12.44,1.17.78,1.26.86-.44,1.2-.35.8-.23,1.14-.14.66.32,1.02.39.69.2,1.05.27.66.33,1.02.41.62.63.98.71.77-.2,1.13-.14.8-.39,1.16-.35.59.96.95,1.02.77-.27,1.13-.23.75-.23,1.11-.18.65.75,1.01.78.8-.75,1.16-.71.71.14,1.07.17.66.75,1.02.78.72.06,1.08.08.74-.23,1.1-.21.74-.35,1.1-.33.72.03,1.08.03.72-.18,1.08-.18.72.87,1.08.87.72-.35,1.1-.35.74.11,1.1.09.74.12,1.1.11.74,0,1.1-.02.71-.5,1.07-.53.74-.03,1.1-.06.71-.33,1.07-.36.8.81,1.16.78.72-.23,1.08-.26.68-.53,1.04-.56.72-.06,1.08-.11.8.51,1.16.47.69-.32,1.05-.38.77.21,1.13.17.71-.29,1.05-.35.74-.05,1.1-.11.62-.71.98-.77.74,0,1.1-.08.62-.6.98-.68.84.42,1.19.35.6-.63.96-.72.69-.23,1.04-.32.8.2,1.14.11.68-.3,1.02-.39.77.02,1.11-.08.81.18,1.16.08.72-.14,1.07-.24.69-.24,1.04-.35.57-.59.92-.71.59-.54.92-.66.8.06,1.13-.06.68-.29,1.01-.41.63-.38.98-.51.66-.32.99-.45.89.24,1.22.11.59-.47.92-.62.6-.44.93-.59.57-.51.9-.66.54-.54.87-.69.99.39,1.32.24.53-.59.86-.75.42-.77.75-.93.75-.14,1.07-.3.98.26,1.29.09.5-.6.81-.78.75-.17,1.07-.35.63-.38.93-.57.26-.98.57-1.16.98.2,1.28,0,.24-.96.54-1.16.59-.44.89-.63.57-.45.86-.65.56-.47.86-.66.9.02,1.19-.2.48-.56.77-.78.47-.59.75-.8.45-.62.74-.83.74-.24,1.01-.47.47-.59.74-.81.87-.09,1.14-.32.62-.41.89-.63.51-.53.77-.77.32-.74.57-.98.72-.3.98-.54c.27-.26.21-.83.47-1.08.27-.26.63-.39.87-.65.26-.27.71-.17.95-.41.33.15.71-.12,1.02.02s.65.3.96.44.54.57.87.71.72.12,1.05.24.68.23,1.01.35.6.45.95.56.65.32.99.41.89-.5,1.22-.41.71.06,1.05.15.51.92.86,1.01.86-.56,1.2-.48.54.87.9.93.78-.3,1.13-.24.69.11,1.05.17.74-.14,1.08-.09.63.71.98.75.69.32,1.04.35.75-.41,1.1-.38.71.14,1.05.15.72-.09,1.07-.08.71.2,1.07.2.71-.41,1.07-.41.72.48,1.08.47c.36,0,.69-.71,1.05-.72s.75.51,1.1.5.74.11,1.08.08.71-.33,1.05-.36.75.41,1.11.38.66-.69,1.02-.72.77.38,1.11.35.68-.42,1.04-.47.71-.17,1.05-.21.68-.39,1.02-.44.81.59,1.17.53.69-.24,1.04-.3.75.09,1.1.02.66-.38,1.01-.45.69-.2,1.04-.27.71-.12,1.05-.21.6-.54.95-.63.86.42,1.2.32.62-.47.95-.57.71-.15,1.04-.27.6-.45.93-.57.89.29,1.22.15.66-.32.99-.47.63-.38.95-.54.65-.35.96-.51.54-.53.86-.71.47-.62.77-.8.87,0,1.16-.2.57-.45.86-.68.72-.3.98-.53-.12-1.2.14-1.45.75-.24.99-.5.69-.36.9-.63.03-.86.24-1.16.83-.32,1.01-.62.47-.59.63-.9.02-.78.15-1.11.44-.62.54-.96,0-.75.06-1.1-.26-.75-.21-1.11.03-.68.05-1.04.69-.68.69-1.04-.17-.72-.18-1.07-.26-.69-.3-1.04.48-.8.42-1.14-.74-.57-.83-.92-.05-.72-.15-1.05-.02-.77-.17-1.08-.11-.77-.27-1.07-.99-.24-1.19-.53-.14-.75-.35-1.04-.3-.56-.53-.81c.26-.29.18-.69.41-1.01s.54-.53.75-.84.09-.78.26-1.13.75-.48.89-.83.5-.63.62-1.01-.63-.93-.54-1.31.56-.63.62-1.01.68-.68.72-1.05-.78-.81-.77-1.2.38-.74.38-1.11.21-.78.18-1.14-.75-.69-.78-1.07.81-.89.75-1.25-.12-.78-.21-1.14-.66-.62-.78-.98.06-.86-.08-1.2-1.05-.33-1.23-.66.14-.95-.08-1.25-.77-.36-.99-.66-.71-.78-.96-1.05l-.02-.06Z"/>
    <path d="M446.62,368.72c-.09-.33-.23-.65-.35-.99s-.21-.65-.36-.98.05-.8-.14-1.11-.5-.53-.69-.83-.41-.57-.63-.86-.29-.69-.53-.96-.57-.44-.83-.69-.47-.54-.75-.77-.47-.54-.77-.77-.75-.17-1.05-.36-.62-.32-.93-.51-.59-.38-.9-.56-.59-.39-.9-.56-.66-.24-.99-.39-.47-.71-.81-.84-.77.03-1.11-.11-.66-.23-1.01-.35-.66-.27-1.01-.38-.78.2-1.13.11-.5-.92-.84-.99-.84.53-1.2.45-.71-.03-1.07-.11-.56-.84-.92-.9-.77.29-1.13.24-.75.27-1.1.23-.66-.33-1.02-.38-.66-.5-1.02-.54-.72.06-1.08.03-.75.5-1.11.47-.65-.9-1.02-.93-.77.83-1.13.81c-.36-.02-.68-.59-1.04-.6s-.71-.35-1.07-.36-.72.03-1.08.02-.72.69-1.08.69-.71-.56-1.07-.56-.71.26-1.07.26-.72-.15-1.08-.14-.69.6-1.05.62-.71,0-1.07,0-.72-.2-1.08-.18-.74-.41-1.1-.39-.69.36-1.05.39-.69.29-1.05.32-.71.17-1.05.2-.72-.08-1.08-.05-.78-.69-1.14-.65-.66.53-1.02.56-.66.47-1.02.51-.78-.53-1.14-.48-.69.26-1.04.3-.74-.06-1.08,0-.62.78-.98.83-.77-.29-1.11-.23-.68.3-1.04.36-.75-.18-1.11-.14-.78-.38-1.14-.32-.71.18-1.05.24-.6.74-.96.81-.84-.56-1.19-.5-.57.84-.93.9-.69.24-1.05.3-1.13-.2-1.49-.12c-.05.53.98.41,1.11.92s-.44.66-.3,1.16.18.5.32,1.01,0,.54.15,1.04-.09.57.05,1.08.05.53.18,1.04.33.45.47.96.84.32.98.83-.65.71-.51,1.22,0,.54.14,1.05.29.47.42.98-.03.71.26,1.14c.36-.08,1.02-.44,1.37-.51s.71-.2,1.07-.26.77.11,1.13.05.63-.62.99-.68.78.26,1.14.2.74-.03,1.1-.08.71-.24,1.07-.3.78.29,1.14.24.69-.41,1.05-.45.66-.59,1.02-.63.74-.05,1.1-.09.81.68,1.17.65.69-.35,1.05-.38.68-.53,1.04-.56.75.18,1.11.15.69-.44,1.05-.47.74-.08,1.1-.11.78.75,1.14.74.72-.2,1.08-.23.71-.51,1.07-.53.74.33,1.1.32.74.09,1.08.08.71-.69,1.07-.71.74.54,1.08.54.72.38,1.08.39.74-.8,1.1-.8.71.62,1.07.63.74-.21,1.1-.2.74,0,1.08,0,.71.33,1.05.36.75-.27,1.11-.24.72.18,1.07.21.66.62,1.01.66.87-.92,1.22-.86.63.69.98.75c.36.06.74.08,1.07.14.36.08.74.11,1.07.18.36.09.77,0,1.1.11.36.11.68.3,1.01.41.36.12.84-.14,1.16,0,.36.14.63.48.95.63.35.17.57.56.84.72.35.21.51.56.74.78.3.3.11.63.18.92.05.18.05.24-.12.75-.09.29.36.84.17,1.2-.15.29-.08.78-.3,1.11-.18.27-1.07.09-1.31.41-.21.27.17,1.04-.09,1.32-.23.26-1.02.03-1.28.3-.24.26-.32.66-.59.92-.24.24-.17.84-.45,1.1-.26.24-.66.33-.95.57-.26.23-.84.11-1.13.33-.27.23-.6.36-.9.59-.27.21-.23.87-.51,1.1s-.6.39-.9.6-.93-.09-1.23.12-.29.84-.59,1.05-.75.15-1.07.36c-.3.2-.54.5-.86.69s-.71.23-1.01.42-.24.99-.56,1.19-.65.35-.96.53-.83,0-1.14.2-.66.29-.99.47-.66.3-.98.48-.74.17-1.05.33-.53.57-.84.74-.38.86-.71,1.02-.66.3-.99.47-.68.29-1.01.44-.66.3-.99.45-.62.42-.95.57-.9-.23-1.23-.08-.51.63-.86.78-.92-.27-1.25-.14-.47.74-.81.89-.87-.18-1.2-.05-.51.68-.84.81-.9-.29-1.23-.15-.35,1.11-.68,1.25-.86-.2-1.2-.06-.83-.11-1.16.02-.5.77-.83.9-.77.03-1.11.15-.62.45-.96.59-.69.24-1.04.36-.69.24-1.04.36-.59.54-.93.66-.77,0-1.11.12-.83-.18-1.17-.06-.53.75-.89.86-.86-.29-1.2-.17-.62.51-.96.62-.75.05-1.11.15-.57.66-.92.77-.75.06-1.1.17-.78-.08-1.14.02-.6.59-.96.68-.68.33-1.02.42-.87-.42-1.22-.33-.72.15-1.07.24-.77-.06-1.13.02-.51,1.01-.86,1.08-.74.08-1.1.15-.87-.56-1.23-.47-.66.39-1.02.48-.68.36-1.02.44-.66.42-1.02.5-.8-.27-1.16-.2-.71.21-1.07.29-.63.57-.99.63-.75,0-1.11.06-.77-.17-1.13-.09-.72.12-1.08.18-.65.56-1.01.62-.77-.11-1.13-.05-.66.5-1.02.56-.78-.21-1.14-.15-.81-.47-1.17-.42-.62.93-.98.99-.74.03-1.1.08-.83-.78-1.19-.74-.65.84-1.01.89-.74.03-1.1.06-.78-.45-1.14-.42-.72.09-1.08.11-.72.06-1.08.09-.69.68-1.05.69-.77-.41-1.13-.38-.72.36-1.08.38-.74.06-1.1.08-.74-.11-1.1-.11-.74-.15-1.1-.14-.72.05-1.08.05-.72-.38-1.08-.39-.74.44-1.1.44-.74.29-1.1.29-.72.02-1.08,0-.71-.54-1.05-.56-.74.11-1.08.08c-.36-.03-.74.06-1.1.03-.36-.03-.75.08-1.1.05-.38-.05-.65-.74-.99-.78-.36-.05-.72-.09-1.07-.15-.36-.06-.68-.35-1.02-.42-.36-.08-.83.45-1.17.38-.36-.08-.59-.69-.92-.77-.36-.09-.92.56-1.25.45-.36-.11-.57-.66-.9-.77-.36-.12-.83.09-1.14-.05-.36-.15-.39-.93-.69-1.08-.36-.18-.71-.2-.99-.36-.36-.23-.68-.33-.89-.53-.41-.35-1.17-.36-1.23-.54-.08-.3.38-.77.48-1.17.08-.3-.05-.77.15-1.13.15-.29.29-.68.5-.99.18-.27.45-.56.69-.86.21-.27.72-.3.98-.59.23-.26.6-.38.87-.65.24-.24,0-1.01.26-1.26.26-.24.53-.48.81-.74.26-.23.81-.17,1.08-.39.27-.23.53-.48.81-.71s.57-.42.86-.65.6-.39.89-.6.47-.57.75-.78.66-.29.96-.5.75-.17,1.05-.36.35-.77.65-.96.65-.32.95-.51.53-.51.83-.71.59-.41.9-.6.87.06,1.19-.12.41-.72.72-.9.65-.32.96-.5.59-.42.9-.59.54-.51.86-.69.6-.41.93-.57.84.06,1.16-.11.5-.6.81-.77.87.15,1.19,0,.62-.36.95-.51.47-.69.8-.86.78-.02,1.11-.17.63-.35.96-.5.56-.51.89-.66.9.27,1.23.12.59-.45.93-.59.68-.23,1.01-.38.6-.41.95-.54.62-.38.96-.51.83.12,1.16,0,.41-.96.75-1.08.72-.15,1.05-.27.75-.05,1.1-.18.66-.32.99-.44,1.14-.08,1.49-.2c.03-.53-.68-.5-.81-1.01s-.35-.45-.48-.96.66-.72.53-1.22-.99-.29-1.13-.78.63-.71.5-1.22-.29-.47-.42-.98-.81-.33-.95-.83-.06-.53-.2-1.04-.03-.54-.17-1.05.68-.72.54-1.23-.5-.42-.63-.93-.48-.3-.77-.74c-.33.12-.2.33-.53.44s-.95-.54-1.29-.42-.48.77-.81.89-.8-.12-1.14,0-.53.63-.86.75-.83-.15-1.16-.02-.44.84-.77.98-.92-.38-1.25-.24-.54.56-.87.69-.57.5-.9.63-.56.54-.87.68-1.01-.53-1.32-.39-.41.87-.74,1.01-.69.2-1.02.35-.53.56-.86.71-.81-.06-1.13.09-.5.62-.81.77-.66.27-.98.44-.99-.41-1.31-.24-.39.83-.71.98-.56.47-.87.62-.92-.23-1.23-.06-.23,1.1-.54,1.26-.77.08-1.08.24-.72.17-1.04.33-.65.3-.96.47-.77.09-1.07.27-.63.32-.93.5-.24.99-.54,1.17-.53.48-.83.68-.74.15-1.04.33-.44.62-.72.81c-.3.2-1.1-.35-1.39-.15s-.39.71-.68.92-.89,0-1.17.21-.56.48-.84.69-.26.87-.54,1.08-.87.05-1.16.26-.56.45-.83.68-.33.72-.6.96-.72.27-.98.5-.24.81-.5,1.04-.32.69-.57.93-.77.23-1.02.48-.84.18-1.08.44-.08.9-.3,1.17-.47.54-.69.81-.65.41-.86.68-.68.41-.89.69-.21.74-.41,1.04-.42.6-.59.89-.47.57-.63.87c-.17.32-.42.62-.57.92-.15.33-.06.78-.2,1.1-.14.33-.33.65-.45.98s.03.77-.06,1.1.05.74-.02,1.07c-.08.36.05.71,0,1.05s-.86.65-.89.99.09.74.11,1.08.03.74.06,1.08.09.72.17,1.07-.12.78-.03,1.13c.09.33,1.01.42,1.13.77s-.5.96-.35,1.29.9.35,1.08.66.3.62.51.92.38.57.6.86.41.56.65.84.42.56.69.81.17.87.45,1.11,1.01-.12,1.29.09.48.5.78.71.35.78.65.96.84-.05,1.16.14.75.03,1.08.2.54.45.87.59.32,1.07.65,1.2.84-.2,1.17-.08.68.2,1.02.32.74-.02,1.08.09.71.03,1.05.12.45,1.07.81,1.16.74,0,1.08.08.71.12,1.05.2.77-.29,1.13-.23.75-.21,1.1-.15.63.51.99.56.63.59.99.63.75-.27,1.11-.24.68.38,1.04.41.77-.71,1.13-.68.66.74,1.02.75.71.11,1.08.12c.39.02.8-.15,1.2-.14s.81-.5,1.22-.5.8-.05,1.19-.03.8.48,1.2.48c.36,0,.71.14,1.07.14s.71-.53,1.05-.54.72.36,1.08.35.69-.48,1.05-.5.71-.11,1.07-.12.71-.06,1.07-.09.74.54,1.1.51.71-.17,1.07-.2.68-.48,1.04-.51.71,0,1.07-.05.74.21,1.1.18.72.02,1.08-.02.74.21,1.1.17.68-.3,1.04-.33.66-.51,1.01-.56.81.8,1.17.75.59-1.04.93-1.08.72.02,1.08-.03.69-.18,1.05-.24.8.54,1.16.48.69-.24,1.04-.3.75.14,1.1.08.69-.21,1.04-.29.74.02,1.08-.05.72-.06,1.07-.12.69-.21,1.05-.27.56-.86.92-.93.71-.11,1.05-.18.84.51,1.19.45.57-.74.93-.81.74.02,1.08-.06.83.41,1.17.33.54-.86.89-.93.81.32,1.16.23.74,0,1.1-.08.57-.69.92-.78.69-.2,1.04-.29.77.09,1.11,0,.57-.68.92-.77.86.39,1.2.3.65-.38.99-.48.63-.45.98-.56.74-.08,1.08-.18.78.11,1.14,0,.63-.42.98-.53.71-.17,1.05-.27.63-.41.98-.51.84.26,1.19.15.71-.17,1.05-.27.54-.66.89-.78.66-.29,1.01-.41.81.15,1.16.03.72-.14,1.07-.26.48-.83.83-.95.78.05,1.13-.09.68-.26,1.02-.39.65-.36.98-.48.59-.48.93-.6.92.35,1.25.23.69-.21,1.04-.35.35-1.11.68-1.25,1.02.59,1.35.45.6-.47.93-.6.44-.84.77-.99.59-.47.92-.6.69-.21,1.02-.36,1.01.48,1.34.35.45-.77.78-.92.62-.39.95-.54.6-.44.92-.59.9.2,1.22.03.33-.98.65-1.13,1.04.47,1.37.3.29-1.04.6-1.2,1.01.36,1.32.2.48-.63.8-.81.77-.11,1.08-.29.23-1.07.54-1.25.69-.24,1.01-.42.92.14,1.22-.05.51-.54.83-.74.56-.47.87-.65.44-.65.74-.84.95.15,1.25-.05c.3-.2.29-.87.59-1.07s.69-.27.98-.47.89,0,1.17-.21.63-.36.92-.57.06-1.11.35-1.32,1.1.24,1.37.03.54-.5.81-.71.12-.98.39-1.2.75-.23,1.01-.45.47-.56.72-.8.44-.57.69-.81.47-.54.71-.8.84-.18,1.08-.44.2-.8.44-1.05.68-.36.9-.63.78-.3,1.01-.57.15-.8.35-1.08.06-.83.26-1.11.18-.72.36-1.01.33-.6.5-.92,1.19-.2,1.34-.51c.15-.33-.54-1.02-.41-1.34.14-.33,1.01-.39,1.11-.72s-.27-.84-.18-1.17.71-.57.77-.92c.08-.36,0-.75.05-1.1s-.05-.74-.03-1.08.03-.72.03-1.07-.08-.72-.11-1.07-.08-.72-.14-1.05-.44-.63-.53-.96l.24.2Z"/>
  </g>
  <g id="Layer_5-i7">
    <path d="M397.92,159.06c-.53-.03-.66.23-1.16-.26-.23-.21.02-.98-.29-1.26-.24-.23-.78-.18-1.05-.45-.24-.24-.14-.84-.41-1.11-.24-.24-.96-.02-1.23-.29-.24-.24-.27-.72-.53-.98-.24-.24-.27-.72-.53-.98-.24-.24-.56-.44-.81-.69s-.35-.65-.6-.9-.39-.6-.63-.87-.89-.14-1.13-.41-.54-.47-.78-.74-.33-.66-.57-.93-.29-.69-.54-.96-.84-.2-1.08-.47-.02-.93-.26-1.2-.66-.36-.9-.63-.86-.21-1.08-.48-.23-.75-.45-1.02-.74-.32-.96-.6.03-.95-.2-1.23-.99-.12-1.22-.39-.11-.83-.33-1.11-.26-.71-.48-.99-.32-.66-.54-.95-.92-.21-1.13-.5-.03-.87-.24-1.16-.56-.48-.77-.78-.87-.27-1.07-.57.44-1.16.24-1.46-1.07-.17-1.26-.47.02-.87-.17-1.17-.21-.71-.39-1.02-.26-.68-.44-.98-.84-.36-1.01-.66-.09-.77-.26-1.08-.2-.71-.35-1.02-.62-.51-.75-.83-.8-.47-.93-.78.62-1.01.51-1.34-.56-.57-.65-.9-.54-.62-.62-.95-.18-.72-.26-1.07.24-.77.21-1.13-.36-.71-.36-1.05-.03-.75,0-1.1.27-.71.35-1.05.5-.6.6-.93-.05-.78.12-1.1.5-.53.71-.81.24-.72.5-.98c.26-.27.95-.08,1.2-.32.27-.26.15-.93.44-1.14.3-.23.72-.26,1.01-.44.32-.2.6-.39.92-.54.33-.17.5-.74.83-.86.35-.12.8.05,1.14-.02s.75.41,1.1.39.77-.87,1.13-.83.69.41,1.04.51.54.59.89.74.77.02,1.08.2.35.77.65.98.93-.09,1.22.14.81.18,1.08.42.33.72.59.98.18.83.42,1.1.41.59.65.86.57.45.8.74.71.38.92.66-.08.93.12,1.23,1.01.21,1.2.51-.17.98,0,1.28,1.02.26,1.19.56c.18.32.12.78.29,1.08.18.33.56.54.72.84.18.35.36.66.51.96.18.36-.3.99-.17,1.28.29.62.26,1.17.78,1.16s-.05-.78.23-1.4c.12-.29.35-.57.53-.95.14-.3.48-.53.66-.87.15-.3.24-.66.42-.98.17-.3.14-.74.33-1.05.18-.3.26-.69.47-.99s.72-.36.93-.66.3-.68.53-.96.23-.78.47-1.04.95-.08,1.22-.33.78-.17,1.07-.39.35-.68.63-.89.47-.57.77-.77.51-.57.83-.72.9.29,1.25.15.57-.44.92-.54c.35-.11.69-.06,1.04-.14s.69.05,1.04,0,.63-.83,1.01-.84.68.75,1.04.78.72-.38,1.08-.33.72,0,1.07.09.68.18,1.04.29.71.14,1.04.26.54.56.87.69.9-.27,1.23-.11.36.84.68,1.02,1.01-.3,1.31-.11.3.87.6,1.07.51.51.81.72.8.12,1.1.35.09,1.04.36,1.28c.29.24,1.25-.26,1.51,0,.26.27-.24,1.2-.02,1.48.24.29,1.05.12,1.25.42s.08.81.24,1.13.24.68.36,1.01.45.62.53.96.14.72.18,1.08.3.72.3,1.08-.47.71-.5,1.07.45.78.39,1.14-.38.68-.47,1.04-.48.6-.6.96,0,.75-.12,1.1-.09.75-.24,1.08-.78.42-.95.75.24.93.06,1.26-.63.48-.83.78.14.95-.06,1.26-.9.27-1.11.57-.68.41-.89.71-.08.84-.3,1.13-.6.45-.83.74.05.98-.18,1.26-1.19-.05-1.43.23-.08.9-.32,1.17-.93.14-1.17.41-.35.68-.59.93-.38.65-.63.92-.35.68-.6.93-.48.56-.74.81-.29.75-.56,1.01-1.01,0-1.26.26-.45.59-.72.84-.38.68-.65.92-.9.09-1.17.33-.03,1.08-.3,1.32-.75.26-1.02.5-.59.45-.86.68-.3.78-.59,1.01-.83.15-1.1.38-.36.74-.63.96c-.3.23-.72.29-.99.51-.3.23-.68.33-.96.54-.3.23-.47.62-.74.83-.32.23-.93,0-1.22.2-.32.24-.68.38-.93.57-.35.24-.36.84-.6,1.02-.56.39-.42.47-.95.44l-.12-.02Z"/>
  </g>
</svg>